<svg width="67" height="51" viewBox="0 0 67 51" fill="none" xmlns="http://www.w3.org/2000/svg">
<path d="M27.4 38.2C27.4 41.5333 26.2 44.4 23.8 46.8C21.5333 49.0667 18.6667 50.2 15.2 50.2C10.4 50.2 6.66667 48.5333 4 45.2C1.33333 41.7333 0 37.7333 0 33.2C0 26.2667 2.06667 20 6.2 14.4C10.3333 8.66666 15.0667 3.86666 20.4 0L27.2 6.8C26.1333 8 24.8 9.4 23.2 11C21.6 12.4667 20.2 14.0667 19 15.8C17.9333 17.5333 17.4 19.2667 17.4 21C17.4 22.7333 18.2 24.2667 19.8 25.6C21.5333 26.9333 23.2 28.5333 24.8 30.4C26.5333 32.2667 27.4 34.8667 27.4 38.2ZM66.4 38.2C66.4 41.5333 65.2 44.4 62.8 46.8C60.5333 49.0667 57.6667 50.2 54.2 50.2C49.4 50.2 45.6667 48.5333 43 45.2C40.3333 41.7333 39 37.7333 39 33.2C39 26.2667 41.0667 20 45.2 14.4C49.3333 8.66666 54.0667 3.86666 59.4 0L66.2 6.8C65.1333 8 63.8 9.4 62.2 11C60.6 12.4667 59.2 14.0667 58 15.8C56.9333 17.5333 56.4 19.2667 56.4 21C56.4 22.7333 57.2 24.2667 58.8 25.6C60.5333 26.9333 62.2 28.5333 63.8 30.4C65.5333 32.2667 66.4 34.8667 66.4 38.2Z" fill="#7ACD9F"/>
</svg>
