<svg width="28" height="28" viewBox="0 0 28 28" fill="none" xmlns="http://www.w3.org/2000/svg">
<path fill-rule="evenodd" clip-rule="evenodd" d="M20.1528 2C19.5676 1.9998 18.9894 2.12803 18.4592 2.37563C17.9289 2.62323 17.4594 2.98417 17.0838 3.43299C16.7082 3.88182 16.4357 4.40759 16.2854 4.97322C16.1352 5.53884 16.1109 6.13055 16.2143 6.70659L10.3926 10.783L10.3089 10.8482C9.71826 10.3865 9.00979 10.1001 8.26425 10.0216C7.51871 9.94309 6.76611 10.0757 6.09227 10.4042C5.41844 10.7327 4.85048 11.244 4.45318 11.8797C4.05588 12.5155 3.84521 13.25 3.84521 13.9997C3.84521 14.7494 4.05588 15.4839 4.45318 16.1197C4.85048 16.7554 5.41844 17.2667 6.09227 17.5952C6.76611 17.9238 7.51871 18.0563 8.26425 17.9778C9.00979 17.8993 9.71826 17.6129 10.3089 17.1512L10.3926 17.2176L16.2143 21.2941C16.1732 21.5238 16.1527 21.7593 16.1527 22.0005C16.1529 22.9489 16.4899 23.8663 17.1038 24.5891C17.7176 25.3119 18.5683 25.7932 19.504 25.947C20.4398 26.1008 21.3997 25.9172 22.2127 25.4289C23.0256 24.9406 23.6386 24.1793 23.9423 23.281C24.246 22.3826 24.2206 21.4055 23.8708 20.5241C23.5209 19.6427 22.8693 18.9143 22.0322 18.4687C21.195 18.0232 20.2268 17.8896 19.3003 18.0917C18.3738 18.2938 17.5492 18.8185 16.9737 19.5722L11.4609 15.7111C11.7071 15.1917 11.8449 14.612 11.8449 13.9991C11.8449 13.3862 11.7071 12.8052 11.4609 12.287L16.9749 8.42725C17.3878 8.96815 17.9319 9.39477 18.5556 9.66677C19.1794 9.93877 19.8622 10.0471 20.5395 9.98165C21.2168 9.91615 21.8662 9.67895 22.4263 9.29248C22.9864 8.90601 23.4386 8.38305 23.7402 7.77306C24.0418 7.16308 24.1829 6.48623 24.1499 5.80655C24.117 5.12687 23.9112 4.46683 23.5521 3.88885C23.1929 3.31087 22.6922 2.83407 22.0974 2.50355C21.5026 2.17303 20.8333 1.99972 20.1528 2ZM17.9989 6.00011C17.9989 5.42886 18.2259 4.881 18.6298 4.47707C19.0337 4.07313 19.5816 3.8462 20.1528 3.8462C20.7241 3.8462 21.2719 4.07313 21.6759 4.47707C22.0798 4.881 22.3067 5.42886 22.3067 6.00011C22.3067 6.57136 22.0798 7.11921 21.6759 7.52315C21.2719 7.92708 20.7241 8.15401 20.1528 8.15401C19.5816 8.15401 19.0337 7.92708 18.6298 7.52315C18.2259 7.11921 17.9989 6.57136 17.9989 6.00011ZM7.84481 11.8464C7.27356 11.8464 6.72571 12.0733 6.32177 12.4773C5.91784 12.8812 5.69091 13.4291 5.69091 14.0003C5.69091 14.5716 5.91784 15.1194 6.32177 15.5234C6.72571 15.9273 7.27356 16.1542 7.84481 16.1542C8.41606 16.1542 8.96392 15.9273 9.36785 15.5234C9.77179 15.1194 9.99872 14.5716 9.99872 14.0003C9.99872 13.4291 9.77179 12.8812 9.36785 12.4773C8.96392 12.0733 8.41606 11.8464 7.84481 11.8464ZM20.1528 19.8466C19.5816 19.8466 19.0337 20.0736 18.6298 20.4775C18.2259 20.8814 17.9989 21.4293 17.9989 22.0005C17.9989 22.5718 18.2259 23.1196 18.6298 23.5236C19.0337 23.9275 19.5816 24.1544 20.1528 24.1544C20.7241 24.1544 21.2719 23.9275 21.6759 23.5236C22.0798 23.1196 22.3067 22.5718 22.3067 22.0005C22.3067 21.4293 22.0798 20.8814 21.6759 20.4775C21.2719 20.0736 20.7241 19.8466 20.1528 19.8466Z" fill="#009141"/>
</svg>
