<svg width="28" height="28" viewBox="0 0 28 28" fill="none" xmlns="http://www.w3.org/2000/svg">
<path fill-rule="evenodd" clip-rule="evenodd" d="M8.02295 12.0081C8.02295 10.4232 8.65255 8.9032 9.77323 7.78251C10.8939 6.66182 12.4139 6.03223 13.9988 6.03223C15.5837 6.03223 17.1037 6.66182 18.2243 7.78251C19.345 8.9032 19.9746 10.4232 19.9746 12.0081C19.9746 13.593 19.345 15.1129 18.2243 16.2336C17.1037 17.3543 15.5837 17.9839 13.9988 17.9839C12.4139 17.9839 10.8939 17.3543 9.77323 16.2336C8.65255 15.1129 8.02295 13.593 8.02295 12.0081ZM13.9988 7.91933C12.9144 7.91933 11.8744 8.35011 11.1076 9.1169C10.3408 9.88368 9.91006 10.9237 9.91006 12.0081C9.91006 13.0925 10.3408 14.1325 11.1076 14.8992C11.8744 15.666 12.9144 16.0968 13.9988 16.0968C15.0832 16.0968 16.1232 15.666 16.89 14.8992C17.6567 14.1325 18.0875 13.0925 18.0875 12.0081C18.0875 10.9237 17.6567 9.88368 16.89 9.1169C16.1232 8.35011 15.0832 7.91933 13.9988 7.91933Z" fill="#009141"/>
<path fill-rule="evenodd" clip-rule="evenodd" d="M3.33649 10.5702C3.55209 7.96214 4.74026 5.53048 6.66522 3.7577C8.59019 1.98491 11.1113 1.00057 13.7282 1H14.2717C16.8886 1.00057 19.4096 1.98491 21.3346 3.7577C23.2596 5.53048 24.4477 7.96214 24.6633 10.5702C24.9032 13.4755 24.0056 16.3604 22.1598 18.6168L16.1298 25.9903C15.8718 26.3059 15.5468 26.5602 15.1785 26.7348C14.8101 26.9094 14.4076 27 13.9999 27C13.5923 27 13.1897 26.9094 12.8214 26.7348C12.453 26.5602 12.128 26.3059 11.87 25.9903L5.84005 18.6168C3.99425 16.3604 3.09666 13.4755 3.33649 10.5702ZM13.7282 2.88711C11.5852 2.88801 9.52082 3.69435 7.94457 5.14616C6.36831 6.59798 5.39531 8.58922 5.21857 10.7249C5.01889 13.1428 5.76583 15.5437 7.30193 17.4216L13.3319 24.7964C13.4129 24.8956 13.515 24.9756 13.6308 25.0305C13.7465 25.0854 13.8731 25.1139 14.0012 25.1139C14.1293 25.1139 14.2558 25.0854 14.3715 25.0305C14.4873 24.9756 14.5894 24.8956 14.6705 24.7964L20.7004 17.4216C22.2356 15.5434 22.9816 13.1424 22.7812 10.7249C22.6045 8.589 21.6313 6.59758 20.0548 5.14574C18.4783 3.69389 16.4136 2.8877 14.2704 2.88711H13.7282Z" fill="#009141"/>
</svg>
