<svg width="28" height="28" viewBox="0 0 28 28" fill="none" xmlns="http://www.w3.org/2000/svg">
<path d="M7.88606 2.63855L9.54613 2.13853C10.3018 1.91054 11.1146 1.96535 11.8329 2.29273C12.5511 2.6201 13.1257 3.19766 13.4493 3.9176L14.4823 6.2157C14.7607 6.83478 14.8382 7.52549 14.7041 8.19089C14.5699 8.85629 14.2308 9.46299 13.7343 9.92585L11.9292 11.6089C11.9076 11.6304 11.8894 11.655 11.8752 11.6819C11.6862 12.0679 11.9732 13.099 12.8723 14.657C13.8863 16.4131 14.6693 17.1072 15.0324 17.0001L17.4015 16.2751C18.0503 16.077 18.7448 16.0868 19.3877 16.3033C20.0307 16.5198 20.5897 16.932 20.9866 17.4822L22.4547 19.5153C22.9156 20.1536 23.1291 20.9376 23.0555 21.7215C22.9819 22.5054 22.6263 23.236 22.0547 23.7774L20.7916 24.9725C20.3524 25.3885 19.819 25.6921 19.2371 25.8574C18.6551 26.0226 18.0418 26.0446 17.4495 25.9215C13.9323 25.1895 10.7812 22.3574 7.96907 17.4872C5.15595 12.614 4.27891 8.46379 5.40896 5.05065C5.59812 4.47923 5.92205 3.96174 6.35338 3.5419C6.7847 3.12207 7.30975 2.81222 7.88606 2.63855ZM8.32108 4.07461C7.97528 4.17876 7.65962 4.36463 7.40079 4.61649C7.14196 4.86836 6.94756 5.17883 6.83402 5.52167C5.85998 8.46279 6.64901 12.1989 9.26912 16.7371C11.8872 21.2723 14.7253 23.8224 17.7565 24.4525C18.1119 24.5262 18.4799 24.5129 18.829 24.4136C19.1782 24.3144 19.4981 24.1321 19.7616 23.8824L21.0236 22.6884C21.3315 22.3969 21.5232 22.0036 21.5629 21.5814C21.6026 21.1593 21.4877 20.7371 21.2396 20.3933L19.7716 18.3592C19.5579 18.063 19.2569 17.8411 18.9108 17.7245C18.5647 17.608 18.1908 17.6026 17.8415 17.7092L15.4664 18.4362C14.1523 18.8272 12.9163 17.7322 11.5742 15.4061C10.4372 13.438 10.0432 12.0159 10.5292 11.0229C10.6238 10.8296 10.7498 10.6592 10.9072 10.5119L12.7123 8.8288C12.9797 8.57958 13.1624 8.25285 13.2347 7.89449C13.307 7.53613 13.2652 7.16414 13.1153 6.83072L12.0812 4.53363C11.907 4.14587 11.5976 3.8348 11.2107 3.6585C10.8239 3.4822 10.3861 3.45272 9.97915 3.57559L8.32108 4.07461Z" fill="#009141"/>
</svg>
