<svg width="28" height="28" viewBox="0 0 28 28" fill="none" xmlns="http://www.w3.org/2000/svg">
<path d="M15.8562 15.3677C15.8562 15.6432 15.7745 15.9125 15.6214 16.1415C15.4684 16.3706 15.2509 16.5491 14.9964 16.6545C14.7418 16.7599 14.4618 16.7875 14.1916 16.7338C13.9214 16.68 13.6732 16.5474 13.4784 16.3526C13.2836 16.1578 13.151 15.9096 13.0972 15.6394C13.0435 15.3692 13.0711 15.0892 13.1765 14.8347C13.2819 14.5802 13.4605 14.3626 13.6895 14.2096C13.9186 14.0565 14.1879 13.9748 14.4633 13.9748C14.8327 13.9748 15.187 14.1216 15.4482 14.3828C15.7094 14.644 15.8562 14.9983 15.8562 15.3677ZM20.9633 13.9748C20.6878 13.9748 20.4185 14.0565 20.1895 14.2096C19.9604 14.3626 19.7819 14.5802 19.6765 14.8347C19.571 15.0892 19.5435 15.3692 19.5972 15.6394C19.651 15.9096 19.7836 16.1578 19.9784 16.3526C20.1732 16.5474 20.4214 16.68 20.6916 16.7338C20.9618 16.7875 21.2418 16.7599 21.4963 16.6545C21.7508 16.5491 21.9684 16.3706 22.1214 16.1415C22.2745 15.9125 22.3561 15.6432 22.3561 15.3677C22.3561 14.9983 22.2094 14.644 21.9482 14.3828C21.687 14.1216 21.3327 13.9748 20.9633 13.9748ZM26.9224 23.6633C27.0167 23.9834 27.023 24.3231 26.9406 24.6466C26.8582 24.9701 26.6902 25.2654 26.4542 25.5014C26.2181 25.7374 25.9228 25.9055 25.5994 25.9879C25.2759 26.0702 24.9362 26.0639 24.616 25.9696L21.7479 25.1258C20.6173 25.6711 19.3877 25.9815 18.1337 26.0382C16.8797 26.0949 15.6272 25.8968 14.4519 25.4558C13.2766 25.0147 12.2029 24.34 11.2958 23.4723C10.3886 22.6046 9.66681 21.562 9.17399 20.4075C8.15864 20.2881 7.1704 19.9997 6.25016 19.5544L3.38206 20.3982C3.06187 20.4925 2.72218 20.4988 2.39871 20.4165C2.07525 20.3341 1.77997 20.166 1.54394 19.93C1.30791 19.694 1.13986 19.3987 1.05747 19.0752C0.975073 18.7517 0.981382 18.4121 1.07573 18.0919L1.91956 15.2238C1.39034 14.1102 1.08816 12.9025 1.03065 11.6709C0.973141 10.4394 1.16146 9.20874 1.58461 8.05075C2.00777 6.89276 2.65729 5.83063 3.49528 4.92633C4.33327 4.02202 5.34296 3.29365 6.46543 2.7837C7.58791 2.27375 8.8007 1.99244 10.033 1.95617C11.2654 1.9199 12.4926 2.1294 13.6431 2.57246C14.7937 3.01551 15.8444 3.68325 16.7342 4.53671C17.6239 5.39016 18.3347 6.41226 18.8253 7.54336C20.2919 7.7201 21.6953 8.24423 22.9187 9.07222C24.1422 9.9002 25.1504 11.0081 25.8597 12.304C26.569 13.5999 26.9589 15.0463 26.9969 16.5231C27.035 17.9999 26.7201 19.4645 26.0785 20.7952L26.9224 23.6633ZM8.57854 18.4203C8.34888 17.1624 8.38169 15.8706 8.67492 14.626C8.96816 13.3814 9.51548 12.2108 10.2825 11.1877C11.0496 10.1647 12.0198 9.31117 13.1324 8.68083C14.2449 8.05049 15.4757 7.65691 16.7476 7.52478C15.797 5.79889 14.1997 4.5213 12.3071 3.97309C10.4146 3.42487 8.38173 3.65094 6.65583 4.60154C4.92993 5.55215 3.65235 7.14943 3.10414 9.04201C2.55592 10.9346 2.78198 12.9674 3.73259 14.6933C3.84692 14.907 3.87316 15.157 3.80571 15.3897L2.85626 18.6177L6.07838 17.6694C6.31117 17.6019 6.5611 17.6282 6.7748 17.7425C7.3438 18.0464 7.95023 18.2743 8.57854 18.4203ZM24.2655 20.2647C25.1055 18.6938 25.353 16.8733 24.9629 15.1352C24.5728 13.397 23.5711 11.8569 22.1403 10.7956C20.7096 9.73431 18.9451 9.2225 17.1685 9.35348C15.3919 9.48446 13.7216 10.2495 12.4619 11.5091C11.2023 12.7688 10.4372 14.4391 10.3063 16.2157C10.1753 17.9923 10.6871 19.7568 11.7484 21.1875C12.8097 22.6183 14.3498 23.62 16.0879 24.0101C17.8261 24.4002 19.6466 24.1527 21.2175 23.3127C21.4312 23.1984 21.6811 23.1722 21.9139 23.2396L25.1418 24.1891L24.1935 20.9669C24.1242 20.7325 24.15 20.4802 24.2655 20.2647Z" fill="#009141"/>
</svg>
