<svg width="28" height="28" viewBox="0 0 28 28" fill="none" xmlns="http://www.w3.org/2000/svg">
<path fill-rule="evenodd" clip-rule="evenodd" d="M24.425 7.526L14.9555 15.368C14.6864 15.5909 14.3479 15.7129 13.9985 15.7129C13.6491 15.7129 13.3106 15.5909 13.0415 15.368L3.5765 7.526C3.52571 7.67887 3.49988 7.83892 3.5 8V20C3.5 20.3978 3.65804 20.7794 3.93934 21.0607C4.22064 21.342 4.60218 21.5 5 21.5H23C23.3978 21.5 23.7794 21.342 24.0607 21.0607C24.342 20.7794 24.5 20.3978 24.5 20V8C24.5006 7.839 24.4753 7.67895 24.425 7.526ZM5 5H23C23.7956 5 24.5587 5.31607 25.1213 5.87868C25.6839 6.44129 26 7.20435 26 8V20C26 20.7956 25.6839 21.5587 25.1213 22.1213C24.5587 22.6839 23.7956 23 23 23H5C4.20435 23 3.44129 22.6839 2.87868 22.1213C2.31607 21.5587 2 20.7956 2 20V8C2 7.20435 2.31607 6.44129 2.87868 5.87868C3.44129 5.31607 4.20435 5 5 5ZM4.685 6.5L13.049 13.4045C13.3169 13.6258 13.6533 13.7472 14.0007 13.748C14.3481 13.7488 14.6851 13.629 14.954 13.409L23.402 6.5H4.685Z" fill="#009141"/>
</svg>
