<svg width="28" height="28" viewBox="0 0 28 28" fill="none" xmlns="http://www.w3.org/2000/svg">
<path d="M13.9987 13.3333C14.9217 13.3333 15.8239 13.0596 16.5914 12.5469C17.3588 12.0341 17.9569 11.3052 18.3101 10.4525C18.6633 9.5998 18.7558 8.66149 18.5757 7.75625C18.3956 6.851 17.9512 6.01948 17.2985 5.36684C16.6459 4.71419 15.8144 4.26974 14.9091 4.08967C14.0039 3.90961 13.0656 4.00202 12.2128 4.35523C11.3601 4.70844 10.6313 5.30658 10.1185 6.07401C9.60573 6.84144 9.33203 7.74369 9.33203 8.66667C9.33203 9.90435 9.8237 11.0913 10.6989 11.9665C11.574 12.8417 12.761 13.3333 13.9987 13.3333ZM13.9987 5.33334C14.658 5.33334 15.3024 5.52883 15.8506 5.8951C16.3988 6.26137 16.826 6.78197 17.0783 7.39106C17.3306 8.00014 17.3966 8.67037 17.268 9.31697C17.1394 9.96357 16.8219 10.5575 16.3557 11.0237C15.8895 11.4899 15.2956 11.8073 14.649 11.936C14.0024 12.0646 13.3322 11.9986 12.7231 11.7463C12.114 11.494 11.5934 11.0667 11.2271 10.5186C10.8609 9.97041 10.6654 9.32594 10.6654 8.66667C10.6654 7.78261 11.0166 6.93477 11.6417 6.30965C12.2668 5.68452 13.1146 5.33334 13.9987 5.33334Z" fill="#009141"/>
<path d="M22.312 18.247C21.2429 17.117 19.9545 16.217 18.5257 15.6018C17.0969 14.9867 15.5576 14.6694 14.002 14.6694C12.4464 14.6694 10.9072 14.9867 9.47834 15.6018C8.04952 16.217 6.76116 17.117 5.69203 18.247C5.46024 18.4946 5.33151 18.8212 5.33203 19.1604V22.667C5.33203 23.0206 5.47251 23.3598 5.72256 23.6098C5.97261 23.8599 6.31174 24.0004 6.66537 24.0004H21.332C21.6857 24.0004 22.0248 23.8599 22.2748 23.6098C22.5249 23.3598 22.6654 23.0206 22.6654 22.667V19.1604C22.6677 18.8221 22.5414 18.4956 22.312 18.247ZM21.332 22.667H6.66537V19.1537C7.61018 18.1588 8.74756 17.3666 10.0083 16.8252C11.269 16.2839 12.6267 16.0047 13.9987 16.0047C15.3707 16.0047 16.7284 16.2839 17.9891 16.8252C19.2498 17.3666 20.3872 18.1588 21.332 19.1537V22.667Z" fill="#009141"/>
</svg>
