<svg width="28" height="28" viewBox="0 0 28 28" fill="none" xmlns="http://www.w3.org/2000/svg">
<path fill-rule="evenodd" clip-rule="evenodd" d="M8.48242 12.1612C8.48242 10.6982 9.06359 9.29515 10.0981 8.26067C11.1325 7.22619 12.5356 6.64502 13.9986 6.64502C15.4616 6.64502 16.8646 7.22619 17.8991 8.26067C18.9336 9.29515 19.5147 10.6982 19.5147 12.1612C19.5147 13.6242 18.9336 15.0272 17.8991 16.0617C16.8646 17.0962 15.4616 17.6773 13.9986 17.6773C12.5356 17.6773 11.1325 17.0962 10.0981 16.0617C9.06359 15.0272 8.48242 13.6242 8.48242 12.1612ZM13.9986 8.38697C12.9976 8.38697 12.0376 8.7846 11.3298 9.49241C10.622 10.2002 10.2244 11.1602 10.2244 12.1612C10.2244 13.1622 10.622 14.1222 11.3298 14.83C12.0376 15.5378 12.9976 15.9354 13.9986 15.9354C14.9996 15.9354 15.9596 15.5378 16.6674 14.83C17.3752 14.1222 17.7728 13.1622 17.7728 12.1612C17.7728 11.1602 17.3752 10.2002 16.6674 9.49241C15.9596 8.7846 14.9996 8.38697 13.9986 8.38697Z" fill="#009141"/>
<path fill-rule="evenodd" clip-rule="evenodd" d="M4.15631 10.834C4.35533 8.42659 5.4521 6.18198 7.22899 4.54557C9.00587 2.90915 11.333 2.00053 13.7486 2H14.2503C16.6659 2.00053 18.9931 2.90915 20.7699 4.54557C22.5468 6.18198 23.6436 8.42659 23.8426 10.834C24.064 13.5158 23.2355 16.1788 21.5316 18.2616L15.9655 25.068C15.7273 25.3593 15.4274 25.594 15.0874 25.7552C14.7473 25.9164 14.3758 26 13.9995 26C13.6232 26 13.2516 25.9164 12.9116 25.7552C12.5716 25.594 12.2716 25.3593 12.0334 25.068L6.46729 18.2616C4.76348 16.1788 3.93493 13.5158 4.15631 10.834ZM13.7486 3.74195C11.7705 3.74278 9.86493 4.48709 8.40992 5.82723C6.95491 7.16737 6.05676 9.00543 5.89361 10.9768C5.70929 13.2087 6.39878 15.425 7.81672 17.1584L13.3828 23.9659C13.4576 24.0575 13.5519 24.1313 13.6587 24.182C13.7656 24.2327 13.8824 24.259 14.0006 24.259C14.1189 24.259 14.2357 24.2327 14.3425 24.182C14.4494 24.1313 14.5436 24.0575 14.6184 23.9659L20.1845 17.1584C21.6016 15.4246 22.2903 13.2084 22.1053 10.9768C21.9422 9.00523 21.0438 7.167 19.5886 5.82683C18.1333 4.48667 16.2275 3.74249 14.2491 3.74195H13.7486Z" fill="#009141"/>
</svg>
