<svg width="28" height="28" viewBox="0 0 28 28" fill="none" xmlns="http://www.w3.org/2000/svg">
<path d="M23.412 15.1765H19.412V10.9412H21.5296C21.9665 10.9412 22.3854 10.7676 22.6943 10.4588C23.0032 10.1499 23.1767 9.73094 23.1767 9.29412V3.64706C23.1767 3.21023 23.0032 2.7913 22.6943 2.48241C22.3854 2.17353 21.9665 2 21.5296 2H6.47082C6.03399 2 5.61506 2.17353 5.30617 2.48241C4.99729 2.7913 4.82376 3.21023 4.82376 3.64706V9.29412C4.82376 9.73094 4.99729 10.1499 5.30617 10.4588C5.61506 10.7676 6.03399 10.9412 6.47082 10.9412H8.58847V15.1765H4.58847C4.15164 15.1765 3.7327 15.35 3.42382 15.6589C3.11494 15.9678 2.94141 16.3867 2.94141 16.8235V18.7059C2.94141 19.1427 3.11494 19.5616 3.42382 19.8705C3.7327 20.1794 4.15164 20.3529 4.58847 20.3529H5.76494V25.2941C5.76494 25.4813 5.83931 25.6609 5.97168 25.7933C6.10406 25.9256 6.28361 26 6.47082 26C6.65803 26 6.83757 25.9256 6.96995 25.7933C7.10233 25.6609 7.1767 25.4813 7.1767 25.2941V20.3529H20.8238V25.2941C20.8238 25.4813 20.8981 25.6609 21.0305 25.7933C21.1629 25.9256 21.3424 26 21.5296 26C21.7169 26 21.8964 25.9256 22.0288 25.7933C22.1612 25.6609 22.2355 25.4813 22.2355 25.2941V20.3529H23.412C23.8488 20.3529 24.2678 20.1794 24.5766 19.8705C24.8855 19.5616 25.0591 19.1427 25.0591 18.7059V16.8235C25.0591 16.3867 24.8855 15.9678 24.5766 15.6589C24.2678 15.35 23.8488 15.1765 23.412 15.1765ZM6.23552 9.29412V3.64706C6.23552 3.58465 6.26031 3.52481 6.30444 3.48068C6.34857 3.43655 6.40841 3.41176 6.47082 3.41176H21.5296C21.592 3.41176 21.6519 3.43655 21.696 3.48068C21.7401 3.52481 21.7649 3.58465 21.7649 3.64706V9.29412C21.7649 9.35652 21.7401 9.41637 21.696 9.4605C21.6519 9.50462 21.592 9.52941 21.5296 9.52941H6.47082C6.40841 9.52941 6.34857 9.50462 6.30444 9.4605C6.26031 9.41637 6.23552 9.35652 6.23552 9.29412ZM10.0002 10.9412H18.0002V15.1765H10.0002V10.9412ZM23.6473 18.7059C23.6473 18.7683 23.6225 18.8281 23.5784 18.8723C23.5342 18.9164 23.4744 18.9412 23.412 18.9412H4.58847C4.52606 18.9412 4.46621 18.9164 4.42209 18.8723C4.37796 18.8281 4.35317 18.7683 4.35317 18.7059V16.8235C4.35317 16.7611 4.37796 16.7013 4.42209 16.6572C4.46621 16.613 4.52606 16.5882 4.58847 16.5882H23.412C23.4744 16.5882 23.5342 16.613 23.5784 16.6572C23.6225 16.7013 23.6473 16.7611 23.6473 16.8235V18.7059Z" fill="#009141"/>
</svg>
