<svg width="28" height="28" viewBox="0 0 28 28" fill="none" xmlns="http://www.w3.org/2000/svg">
<mask id="mask0_767_5167" style="mask-type:alpha" maskUnits="userSpaceOnUse" x="0" y="0" width="28" height="28">
<circle cx="14" cy="14" r="14" fill="#4351BC"/>
</mask>
<g mask="url(#mask0_767_5167)">
<path d="M22.0325 -1.12H5.9675C2.05319 -1.12 -1.12 2.05319 -1.12 5.9675V22.0325C-1.12 25.9468 2.05319 29.12 5.9675 29.12H22.0325C25.9468 29.12 29.12 25.9468 29.12 22.0325V5.9675C29.12 2.05319 25.9468 -1.12 22.0325 -1.12Z" fill="url(#paint0_radial_767_5167)"/>
<path d="M22.0325 -1.12H5.9675C2.05319 -1.12 -1.12 2.05319 -1.12 5.9675V22.0325C-1.12 25.9468 2.05319 29.12 5.9675 29.12H22.0325C25.9468 29.12 29.12 25.9468 29.12 22.0325V5.9675C29.12 2.05319 25.9468 -1.12 22.0325 -1.12Z" fill="url(#paint1_radial_767_5167)"/>
<path d="M14.0008 5.24988C11.6245 5.24988 11.3262 5.26029 10.3929 5.30273C9.46138 5.34543 8.82551 5.49287 8.26919 5.70925C7.69361 5.93273 7.20545 6.23172 6.71913 6.71822C6.23236 7.20463 5.93338 7.69279 5.7092 8.2681C5.4922 8.8246 5.34459 9.46073 5.30267 10.3918C5.26094 11.3252 5.25 11.6236 5.25 14C5.25 16.3764 5.2605 16.6737 5.30285 17.607C5.34573 18.5385 5.49316 19.1744 5.70937 19.7307C5.93303 20.3063 6.23201 20.7944 6.71851 21.2808C7.20475 21.7675 7.69291 22.0672 8.26805 22.2907C8.82481 22.5071 9.46076 22.6545 10.3921 22.6972C11.3255 22.7396 11.6235 22.7501 13.9997 22.7501C16.3763 22.7501 16.6736 22.7396 17.6069 22.6972C18.5385 22.6545 19.175 22.5071 19.7318 22.2907C20.3071 22.0672 20.7945 21.7675 21.2807 21.2808C21.7675 20.7944 22.0664 20.3063 22.2906 19.731C22.5057 19.1744 22.6534 18.5383 22.6971 17.6072C22.7391 16.6739 22.75 16.3764 22.75 14C22.75 11.6236 22.7391 11.3254 22.6971 10.392C22.6534 9.46047 22.5057 8.82469 22.2906 8.26837C22.0664 7.69279 21.7675 7.20463 21.2807 6.71822C20.794 6.23154 20.3073 5.93255 19.7312 5.70934C19.1734 5.49287 18.5372 5.34534 17.6057 5.30273C16.6723 5.26029 16.3752 5.24988 13.9981 5.24988H14.0008ZM13.2158 6.82672C13.4488 6.82637 13.7088 6.82672 14.0008 6.82672C16.3371 6.82672 16.614 6.83512 17.5366 6.87703C18.3897 6.91605 18.8527 7.05859 19.1612 7.17838C19.5695 7.33693 19.8607 7.52654 20.1667 7.83288C20.473 8.13913 20.6625 8.43077 20.8215 8.83913C20.9413 9.14713 21.084 9.61018 21.1229 10.4633C21.1648 11.3857 21.1739 11.6628 21.1739 13.998C21.1739 16.3332 21.1648 16.6103 21.1229 17.5326C21.0838 18.3857 20.9413 18.8488 20.8215 19.1569C20.663 19.5652 20.473 19.856 20.1667 20.1621C19.8605 20.4683 19.5697 20.6578 19.1612 20.8165C18.8531 20.9368 18.3897 21.079 17.5366 21.118C16.6142 21.1599 16.3371 21.169 14.0008 21.169C11.6644 21.169 11.3874 21.1599 10.4651 21.118C9.61196 21.0786 9.14891 20.9361 8.84021 20.8163C8.43194 20.6577 8.14021 20.4681 7.83396 20.1619C7.52771 19.8556 7.33819 19.5647 7.1792 19.1562C7.05941 18.8481 6.9167 18.385 6.87785 17.5319C6.83594 16.6095 6.82754 16.3325 6.82754 13.9958C6.82754 11.6591 6.83594 11.3835 6.87785 10.4611C6.91688 9.60799 7.05941 9.14494 7.1792 8.8365C7.33784 8.42814 7.52771 8.1365 7.83405 7.83025C8.14039 7.524 8.43194 7.33439 8.8403 7.17549C9.14874 7.05518 9.61196 6.91299 10.4651 6.87379C11.2723 6.8373 11.5851 6.82637 13.2158 6.82453V6.82672ZM18.6715 8.27957C18.0919 8.27957 17.6215 8.74944 17.6215 9.32922C17.6215 9.9089 18.0919 10.3792 18.6715 10.3792C19.2512 10.3792 19.7215 9.9089 19.7215 9.32922C19.7215 8.74953 19.2512 8.27922 18.6715 8.27922V8.27957ZM14.0008 9.5064C11.5193 9.5064 9.50731 11.5184 9.50731 14C9.50731 16.4816 11.5193 18.4926 14.0008 18.4926C16.4824 18.4926 18.4937 16.4816 18.4937 14C18.4937 11.5185 16.4822 9.5064 14.0006 9.5064H14.0008ZM14.0008 11.0832C15.6116 11.0832 16.9175 12.389 16.9175 14C16.9175 15.6108 15.6116 16.9167 14.0008 16.9167C12.39 16.9167 11.0842 15.6108 11.0842 14C11.0842 12.389 12.3899 11.0832 14.0008 11.0832Z" fill="white"/>
</g>
<defs>
<radialGradient id="paint0_radial_767_5167" cx="0" cy="0" r="1" gradientUnits="userSpaceOnUse" gradientTransform="translate(6.9125 31.4491) rotate(-90) scale(29.9701 27.8745)">
<stop stop-color="#FFDD55"/>
<stop offset="0.1" stop-color="#FFDD55"/>
<stop offset="0.5" stop-color="#FF543E"/>
<stop offset="1" stop-color="#C837AB"/>
</radialGradient>
<radialGradient id="paint1_radial_767_5167" cx="0" cy="0" r="1" gradientUnits="userSpaceOnUse" gradientTransform="translate(-6.18531 1.05835) rotate(78.681) scale(13.3968 55.222)">
<stop stop-color="#3771C8"/>
<stop offset="0.128" stop-color="#3771C8"/>
<stop offset="1" stop-color="#6600FF" stop-opacity="0"/>
</radialGradient>
</defs>
</svg>
