<svg width="28" height="28" viewBox="0 0 28 28" fill="none" xmlns="http://www.w3.org/2000/svg">
<circle cx="14" cy="14" r="13.5" stroke="white"/>
<path d="M14.0007 6C11.8281 6 11.5554 6.00952 10.7021 6.04832C9.8504 6.08736 9.26904 6.22216 8.7604 6.42C8.23416 6.62431 7.78784 6.89767 7.3432 7.34247C6.89816 7.78718 6.6248 8.2335 6.41984 8.75949C6.22144 9.26829 6.08648 9.84988 6.04816 10.7012C6.01 11.5545 6 11.8273 6 14C6 16.1727 6.0096 16.4445 6.04832 17.2978C6.08752 18.1495 6.22232 18.7308 6.42 19.2395C6.62448 19.7657 6.89784 20.212 7.34264 20.6567C7.7872 21.1017 8.23352 21.3757 8.75936 21.58C9.2684 21.7778 9.84984 21.9126 10.7014 21.9517C11.5547 21.9905 11.8272 22 13.9998 22C16.1726 22 16.4445 21.9905 17.2978 21.9517C18.1494 21.9126 18.7314 21.7778 19.2405 21.58C19.7665 21.3757 20.2122 21.1017 20.6566 20.6567C21.1017 20.212 21.375 19.7657 21.58 19.2397C21.7766 18.7308 21.9117 18.1493 21.9517 17.298C21.99 16.4447 22 16.1727 22 14C22 11.8273 21.99 11.5547 21.9517 10.7013C21.9117 9.84964 21.7766 9.26837 21.58 8.75973C21.375 8.2335 21.1017 7.78718 20.6566 7.34247C20.2117 6.89751 19.7666 6.62415 19.24 6.42008C18.73 6.22216 18.1483 6.08728 17.2966 6.04832C16.4433 6.00952 16.1716 6 13.9982 6H14.0007ZM13.283 7.44167C13.4961 7.44135 13.7338 7.44167 14.0007 7.44167C16.1368 7.44167 16.3899 7.44935 17.2334 7.48767C18.0134 7.52334 18.4368 7.65366 18.7188 7.76318C19.0922 7.90814 19.3583 8.0815 19.6382 8.36158C19.9182 8.64157 20.0914 8.90821 20.2368 9.28157C20.3463 9.56316 20.4768 9.98652 20.5123 10.7665C20.5506 11.6099 20.559 11.8631 20.559 13.9982C20.559 16.1332 20.5506 16.3865 20.5123 17.2298C20.4766 18.0098 20.3463 18.4332 20.2368 18.7148C20.0918 19.0882 19.9182 19.354 19.6382 19.6339C19.3582 19.9139 19.0923 20.0871 18.7188 20.2322C18.4371 20.3422 18.0134 20.4722 17.2334 20.5079C16.3901 20.5462 16.1368 20.5545 14.0007 20.5545C11.8646 20.5545 11.6114 20.5462 10.7681 20.5079C9.98808 20.4719 9.56472 20.3415 9.28248 20.232C8.9092 20.087 8.64248 19.9137 8.36248 19.6337C8.08248 19.3537 7.9092 19.0877 7.76384 18.7142C7.65432 18.4325 7.52384 18.0092 7.48832 17.2292C7.45 16.3858 7.44232 16.1325 7.44232 13.9962C7.44232 11.8598 7.45 11.6079 7.48832 10.7645C7.524 9.98452 7.65432 9.56116 7.76384 9.27917C7.90888 8.90581 8.08248 8.63917 8.36256 8.35918C8.64264 8.07918 8.9092 7.90582 9.28256 7.76054C9.56456 7.65054 9.98808 7.52054 10.7681 7.48471C11.5061 7.45135 11.7921 7.44135 13.283 7.43967V7.44167ZM18.2711 8.76997C17.7411 8.76997 17.3111 9.19957 17.3111 9.72964C17.3111 10.2596 17.7411 10.6896 18.2711 10.6896C18.8011 10.6896 19.2311 10.2596 19.2311 9.72964C19.2311 9.19965 18.8011 8.76965 18.2711 8.76965V8.76997ZM14.0007 9.89164C11.7319 9.89164 9.8924 11.7311 9.8924 14C9.8924 16.2689 11.7319 18.1075 14.0007 18.1075C16.2696 18.1075 18.1085 16.2689 18.1085 14C18.1085 11.7312 16.2694 9.89164 14.0006 9.89164H14.0007ZM14.0007 11.3333C15.4734 11.3333 16.6674 12.5271 16.6674 14C16.6674 15.4727 15.4734 16.6667 14.0007 16.6667C12.528 16.6667 11.3341 15.4727 11.3341 14C11.3341 12.5271 12.5279 11.3333 14.0007 11.3333Z" fill="white"/>
</svg>
