<svg width="28" height="28" viewBox="0 0 28 28" fill="none" xmlns="http://www.w3.org/2000/svg">
<circle cx="14" cy="14" r="14" fill="#0A66C2"/>
<path d="M10.9159 8.54164C10.9157 8.91737 10.7662 9.27763 10.5004 9.54317C10.2346 9.80871 9.8742 9.95779 9.49848 9.9576C9.12275 9.95741 8.76249 9.80798 8.49695 9.54217C8.23141 9.27636 8.08233 8.91595 8.08252 8.54023C8.08271 8.1645 8.23214 7.80424 8.49795 7.5387C8.76376 7.27316 9.12417 7.12408 9.49989 7.12427C9.87562 7.12446 10.2359 7.27389 10.5014 7.5397C10.767 7.80551 10.916 8.16592 10.9159 8.54164ZM10.9584 11.0066H8.12502V19.875H10.9584V11.0066ZM15.435 11.0066H12.6159V19.875H15.4067V15.2212C15.4067 12.6287 18.7854 12.3879 18.7854 15.2212V19.875H21.5834V14.2579C21.5834 9.88748 16.5825 10.0504 15.4067 12.1966L15.435 11.0066Z" fill="white"/>
</svg>
