<svg width="28" height="28" viewBox="0 0 28 28" fill="none" xmlns="http://www.w3.org/2000/svg">
<circle cx="14" cy="14" r="13.5" stroke="white"/>
<path d="M10.9159 8.54189C10.9157 8.91761 10.7662 9.27787 10.5004 9.54341C10.2346 9.80896 9.8742 9.95803 9.49848 9.95785C9.12275 9.95766 8.76249 9.80822 8.49695 9.54241C8.23141 9.2766 8.08233 8.91619 8.08252 8.54047C8.08271 8.16475 8.23214 7.80449 8.49795 7.53894C8.76376 7.2734 9.12417 7.12432 9.49989 7.12451C9.87562 7.1247 10.2359 7.27414 10.5014 7.53994C10.767 7.80575 10.916 8.16616 10.9159 8.54189ZM10.9584 11.0069H8.12502V19.8752H10.9584V11.0069ZM15.435 11.0069H12.6159V19.8752H15.4067V15.2215C15.4067 12.629 18.7854 12.3881 18.7854 15.2215V19.8752H21.5834V14.2581C21.5834 9.88772 16.5825 10.0506 15.4067 12.1969L15.435 11.0069Z" fill="white"/>
</svg>
