<svg width="28" height="28" viewBox="0 0 28 28" fill="none" xmlns="http://www.w3.org/2000/svg">
<path d="M4.37314 18.8514H7.94764L6.88114 24.1484C6.8577 24.2721 6.84599 24.3976 6.84614 24.5234C6.84614 25.0974 7.24414 25.4139 7.79514 25.4139C8.35764 25.4139 8.76764 25.1089 8.88514 24.5349L10.0331 18.8514H15.5761L14.5101 24.1484C14.4751 24.2654 14.4636 24.4064 14.4636 24.5234C14.4636 25.0974 14.8621 25.4139 15.4246 25.4139C15.9871 25.4139 16.3971 25.1089 16.5146 24.5349L17.6501 18.8514H21.8336C22.4781 18.8514 22.9236 18.3829 22.9236 17.7499C22.9236 17.2344 22.5721 16.8124 22.0446 16.8124H18.0716L19.3151 10.6249H23.4166C24.0616 10.6249 24.5066 10.1564 24.5066 9.52344C24.5066 9.00794 24.1551 8.58594 23.6276 8.58594H19.7251L20.6861 3.86344C20.6976 3.79294 20.7211 3.64044 20.7211 3.48844C20.7211 2.91394 20.3111 2.58594 19.7486 2.58594C19.0926 2.58594 18.7996 2.94894 18.6821 3.49994L17.6511 8.58594H12.1076L13.0686 3.86344C13.0801 3.79294 13.1036 3.64044 13.1036 3.48844C13.1036 2.91394 12.6816 2.58594 12.1311 2.58594C11.4631 2.58594 11.1581 2.94894 11.0526 3.49994L10.0216 8.58594H6.17814C5.53314 8.58594 5.08814 9.07794 5.08814 9.72244C5.08814 10.2499 5.43964 10.6249 5.96714 10.6249H9.61164L8.36914 16.8124H4.58414C3.93914 16.8124 3.49414 17.3044 3.49414 17.9489C3.49414 18.4764 3.84564 18.8514 4.37314 18.8514ZM10.4431 16.8124L11.6976 10.6249H17.2401L15.9861 16.8124H10.4431Z" fill="white"/>
</svg>
