<svg width="20" height="20" viewBox="0 0 20 20" fill="none" xmlns="http://www.w3.org/2000/svg">
<path d="M12.454 4.87122C11.9577 4.36575 11.3662 3.96361 10.7136 3.68803C10.0611 3.41245 9.3604 3.26888 8.65205 3.26563C7.9437 3.26237 7.24172 3.39949 6.58666 3.66907C5.9316 3.93864 5.33644 4.33533 4.83555 4.83621C4.33466 5.3371 3.93798 5.93226 3.66841 6.58732C3.39883 7.24238 3.26171 7.94436 3.26497 8.65271C3.26822 9.36107 3.41179 10.0618 3.68737 10.7143C3.96295 11.3669 4.36509 11.9584 4.87056 12.4546C5.87933 13.445 7.23838 13.997 8.65205 13.9905C10.0657 13.984 11.4196 13.4196 12.4193 12.4199C13.4189 11.4203 13.9834 10.0664 13.9899 8.65271C13.9963 7.23904 13.4444 5.87999 12.454 4.87122ZM3.70401 3.70467C4.96858 2.44041 6.66836 1.70699 8.45574 1.6544C10.2431 1.60181 11.9831 2.23402 13.3198 3.42175C14.6565 4.60948 15.489 6.26299 15.647 8.04415C15.8051 9.82531 15.2767 11.5996 14.17 13.0041L18.5796 17.4137L17.413 18.5802L13.0034 14.1706C11.5984 15.2733 9.82571 15.7984 8.04686 15.6388C6.268 15.4792 4.61704 14.647 3.43075 13.3119C2.24446 11.9768 1.61222 10.2394 1.66299 8.45411C1.71377 6.66883 2.44375 4.97018 3.70401 3.70467Z" fill="#FEFFFF"/>
</svg>
