<svg width="16" height="16" viewBox="0 0 16 16" fill="none" xmlns="http://www.w3.org/2000/svg">
<path fill-rule="evenodd" clip-rule="evenodd" d="M14.0813 4.2235L8.55737 8.798C8.40041 8.92805 8.20297 8.99922 7.99913 8.99922C7.79528 8.99922 7.59784 8.92805 7.44088 8.798L1.91962 4.2235C1.89 4.31267 1.87493 4.40604 1.875 4.5V11.5C1.875 11.7321 1.96719 11.9546 2.13128 12.1187C2.29538 12.2828 2.51794 12.375 2.75 12.375H13.25C13.4821 12.375 13.7046 12.2828 13.8687 12.1187C14.0328 11.9546 14.125 11.7321 14.125 11.5V4.5C14.1253 4.40608 14.1106 4.31272 14.0813 4.2235ZM2.75 2.75H13.25C13.7141 2.75 14.1592 2.93437 14.4874 3.26256C14.8156 3.59075 15 4.03587 15 4.5V11.5C15 11.9641 14.8156 12.4092 14.4874 12.7374C14.1592 13.0656 13.7141 13.25 13.25 13.25H2.75C2.28587 13.25 1.84075 13.0656 1.51256 12.7374C1.18437 12.4092 1 11.9641 1 11.5V4.5C1 4.03587 1.18437 3.59075 1.51256 3.26256C1.84075 2.93437 2.28587 2.75 2.75 2.75ZM2.56625 3.625L7.44525 7.65263C7.60151 7.78169 7.79773 7.85251 8.0004 7.85299C8.20308 7.85347 8.39963 7.78358 8.5565 7.65525L13.4845 3.625H2.56625Z" fill="white"/>
</svg>
