<svg width="16" height="16" viewBox="0 0 16 16" fill="none" xmlns="http://www.w3.org/2000/svg">
<path d="M13.1429 6.28571C13.1429 4.92174 12.6011 3.61364 11.6366 2.64917C10.6721 1.68469 9.36404 1.14286 8.00007 1.14286C6.6361 1.14286 5.32799 1.68469 4.36352 2.64917C3.39905 3.61364 2.85721 4.92174 2.85721 6.28571C2.85721 8.39543 4.54521 11.1451 8.00007 14.4389C11.4549 11.1451 13.1429 8.39543 13.1429 6.28571ZM8.00007 16C3.80921 12.1909 1.71436 8.952 1.71436 6.28571C1.71436 4.61864 2.3766 3.01984 3.5554 1.84104C4.7342 0.662243 6.33299 0 8.00007 0C9.66714 0 11.2659 0.662243 12.4447 1.84104C13.6235 3.01984 14.2858 4.61864 14.2858 6.28571C14.2858 8.952 12.1909 12.1909 8.00007 16Z" fill="#966C55"/>
<path d="M8.00021 8.00014C8.45487 8.00014 8.8909 7.81953 9.21239 7.49804C9.53388 7.17655 9.71449 6.74051 9.71449 6.28585C9.71449 5.8312 9.53388 5.39516 9.21239 5.07367C8.8909 4.75218 8.45487 4.57157 8.00021 4.57157C7.54555 4.57157 7.10952 4.75218 6.78803 5.07367C6.46653 5.39516 6.28592 5.8312 6.28592 6.28585C6.28592 6.74051 6.46653 7.17655 6.78803 7.49804C7.10952 7.81953 7.54555 8.00014 8.00021 8.00014ZM8.00021 9.143C7.24245 9.143 6.51572 8.84198 5.9799 8.30616C5.44409 7.77034 5.14307 7.04362 5.14307 6.28585C5.14307 5.52809 5.44409 4.80137 5.9799 4.26555C6.51572 3.72973 7.24245 3.42871 8.00021 3.42871C8.75797 3.42871 9.4847 3.72973 10.0205 4.26555C10.5563 4.80137 10.8574 5.52809 10.8574 6.28585C10.8574 7.04362 10.5563 7.77034 10.0205 8.30616C9.4847 8.84198 8.75797 9.143 8.00021 9.143Z" fill="#966C55"/>
</svg>
