<svg width="16" height="16" viewBox="0 0 16 16" fill="none" xmlns="http://www.w3.org/2000/svg">
<path d="M3.9242 0.425698L5.03092 0.0923508C5.53471 -0.0596395 6.07659 -0.0230992 6.55542 0.195151C7.03424 0.4134 7.41728 0.798443 7.63303 1.2784L8.32172 2.81046C8.5073 3.22319 8.55899 3.68366 8.46955 4.12726C8.38012 4.57086 8.15404 4.97533 7.82303 5.2839L6.61965 6.40595C6.60525 6.42025 6.59311 6.43666 6.58365 6.45462C6.45764 6.71196 6.64898 7.39932 7.24834 8.43803C7.92437 9.60875 8.44639 10.0714 8.6884 10.0001L10.2678 9.51674C10.7003 9.38466 11.1634 9.39123 11.592 9.53554C12.0206 9.67985 12.3933 9.95465 12.6579 10.3214L13.6366 11.6768C13.9439 12.1024 14.0862 12.6251 14.0372 13.1477C13.9881 13.6703 13.751 14.1573 13.3699 14.5183L12.5279 15.315C12.2351 15.5923 11.8795 15.7947 11.4915 15.9049C11.1036 16.0151 10.6947 16.0298 10.2998 15.9477C7.95504 15.4597 5.85429 13.5716 3.97954 10.3248C2.10413 7.07598 1.51944 4.30919 2.2728 2.03377C2.39891 1.65282 2.61486 1.30783 2.90241 1.02793C3.18996 0.748043 3.53999 0.54148 3.9242 0.425698ZM4.21422 1.38307C3.98368 1.45251 3.77324 1.57642 3.60069 1.74433C3.42814 1.91224 3.29854 2.11922 3.22284 2.34778C2.57348 4.30853 3.0995 6.7993 4.84624 9.82476C6.59165 12.8482 8.48373 14.5483 10.5045 14.9683C10.7414 15.0175 10.9867 15.0086 11.2195 14.9424C11.4523 14.8763 11.6656 14.7548 11.8412 14.5883L12.6826 13.7923C12.8878 13.5979 13.0156 13.3357 13.0421 13.0543C13.0686 12.7729 12.992 12.4914 12.8266 12.2622L11.8479 10.9061C11.7054 10.7087 11.5048 10.5607 11.274 10.483C11.0433 10.4053 10.794 10.4017 10.5611 10.4728L8.97775 10.9575C8.10171 11.2181 7.27768 10.4881 6.38297 8.93739C5.62494 7.62533 5.36226 6.67729 5.68628 6.01526C5.74939 5.88637 5.8334 5.77281 5.93829 5.67458L7.14167 4.55254C7.31997 4.38638 7.44177 4.16857 7.48995 3.92966C7.53814 3.69076 7.5103 3.44276 7.41035 3.22048L6.72099 1.68908C6.60482 1.43058 6.39853 1.2232 6.14065 1.10566C5.88276 0.98813 5.59091 0.968483 5.3196 1.05039L4.21422 1.38307Z" fill="#966C55"/>
</svg>
