<svg width="20" height="20" viewBox="0 0 20 20" fill="none" xmlns="http://www.w3.org/2000/svg">
<path d="M1 13.75V6.25C1 5.71957 1.21071 5.21086 1.58579 4.83579C1.96086 4.46071 2.46957 4.25 3 4.25H11.5C12.0304 4.25 12.5391 4.46071 12.9142 4.83579C13.2893 5.21086 13.5 5.71957 13.5 6.25V13.75C13.5 14.2804 13.2893 14.7891 12.9142 15.1642C12.5391 15.5393 12.0304 15.75 11.5 15.75H3C2.46957 15.75 1.96086 15.5393 1.58579 15.1642C1.21071 14.7891 1 14.2804 1 13.75ZM18.168 4.991L14.168 8.554C14.1153 8.60081 14.0731 8.65825 14.0441 8.72253C14.0152 8.78682 14.0001 8.8565 14 8.927V10.705C14.0001 10.7755 14.0152 10.8452 14.0441 10.9095C14.0731 10.9738 14.1153 11.0312 14.168 11.078L18.168 14.641C18.2401 14.705 18.3291 14.7468 18.4244 14.7614C18.5196 14.776 18.6171 14.7627 18.705 14.7232C18.7929 14.6837 18.8675 14.6196 18.9199 14.5386C18.9722 14.4577 19 14.3634 19 14.267V5.365C19 5.26862 18.9722 5.17429 18.9199 5.09335C18.8675 5.01242 18.7929 4.94834 18.705 4.90882C18.6171 4.86931 18.5196 4.85604 18.4244 4.87062C18.3291 4.8852 18.2401 4.927 18.168 4.991Z" stroke="white" stroke-linecap="round" stroke-linejoin="round"/>
</svg>
