<svg width="26" height="26" viewBox="0 0 26 26" fill="none" xmlns="http://www.w3.org/2000/svg">
<path d="M16.3541 6.39606C15.7024 5.73231 14.9257 5.20425 14.0688 4.84237C13.212 4.4805 12.2919 4.29198 11.3617 4.28771C10.4315 4.28343 9.50975 4.46349 8.64956 4.81747C7.78938 5.17146 7.00786 5.69236 6.35013 6.35009C5.6924 7.00782 5.1715 7.78934 4.81751 8.64952C4.46353 9.5097 4.28347 10.4315 4.28775 11.3617C4.29202 12.2918 4.48054 13.2119 4.84242 14.0688C5.20429 14.9257 5.73235 15.7024 6.3961 16.3541C7.72075 17.6546 9.50536 18.3794 11.3617 18.3709C13.218 18.3624 14.9959 17.6212 16.3086 16.3085C17.6212 14.9959 18.3624 13.218 18.3709 11.3617C18.3795 9.50532 17.6546 7.72071 16.3541 6.39606ZM4.86426 4.86422C6.52482 3.20408 8.75685 2.24101 11.1039 2.17196C13.451 2.1029 15.7358 2.93307 17.4911 4.49271C19.2464 6.05235 20.3395 8.22363 20.547 10.5625C20.7545 12.9014 20.0607 15.2312 18.6074 17.0756L24.3978 22.866L22.866 24.3978L17.0756 18.6074C15.2307 20.0553 12.9029 20.7448 10.567 20.5353C8.23112 20.3257 6.0632 19.2329 4.50544 17.4798C2.94768 15.7266 2.11747 13.4452 2.18415 11.1009C2.25083 8.75656 3.20938 6.52601 4.86426 4.86422Z" fill="white"/>
</svg>
