<svg width="26" height="26" viewBox="0 0 26 26" fill="none" xmlns="http://www.w3.org/2000/svg">
<path d="M16.3539 6.39606C15.7022 5.73231 14.9255 5.20425 14.0686 4.84237C13.2117 4.4805 12.2916 4.29198 11.3615 4.28771C10.4313 4.28343 9.5095 4.46349 8.64932 4.81747C7.78914 5.17146 7.00762 5.69236 6.34989 6.35009C5.69216 7.00782 5.17126 7.78934 4.81727 8.64952C4.46328 9.5097 4.28323 10.4315 4.2875 11.3617C4.29178 12.2918 4.4803 13.2119 4.84217 14.0688C5.20405 14.9257 5.73211 15.7024 6.39585 16.3541C7.7205 17.6546 9.50511 18.3794 11.3615 18.3709C13.2178 18.3624 14.9957 17.6212 16.3083 16.3085C17.6209 14.9959 18.3622 13.218 18.3707 11.3617C18.3792 9.50532 17.6544 7.72071 16.3539 6.39606ZM4.86402 4.86422C6.52457 3.20408 8.7566 2.24101 11.1037 2.17196C13.4507 2.1029 15.7355 2.93307 17.4908 4.49271C19.2461 6.05235 20.3393 8.22363 20.5468 10.5625C20.7543 12.9014 20.0605 15.2312 18.6072 17.0756L24.3976 22.866L22.8658 24.3978L17.0754 18.6074C15.2304 20.0553 12.9026 20.7448 10.5668 20.5353C8.23088 20.3257 6.06295 19.2329 4.5052 17.4798C2.94744 15.7266 2.11722 13.4452 2.1839 11.1009C2.25058 8.75656 3.20913 6.52601 4.86402 4.86422Z" fill="#006545"/>
</svg>
