<svg width="26" height="26" viewBox="0 0 26 26" fill="none" xmlns="http://www.w3.org/2000/svg">
<path d="M16.3543 6.39606C15.7027 5.73231 14.926 5.20425 14.0691 4.84237C13.2122 4.4805 12.2921 4.29198 11.3619 4.28771C10.4318 4.28343 9.50999 4.46349 8.64981 4.81747C7.78963 5.17146 7.0081 5.69236 6.35037 6.35009C5.69264 7.00782 5.17174 7.78934 4.81776 8.64952C4.46377 9.5097 4.28372 10.4315 4.28799 11.3617C4.29227 12.2918 4.48078 13.2119 4.84266 14.0688C5.20454 14.9257 5.73259 15.7024 6.39634 16.3541C7.72099 17.6546 9.5056 18.3794 11.3619 18.3709C13.2183 18.3624 14.9962 17.6212 16.3088 16.3085C17.6214 14.9959 18.3626 13.218 18.3712 11.3617C18.3797 9.50532 17.6549 7.72071 16.3543 6.39606ZM4.86451 4.86422C6.52506 3.20408 8.75709 2.24101 11.1042 2.17196C13.4512 2.1029 15.736 2.93307 17.4913 4.49271C19.2466 6.05235 20.3398 8.22363 20.5473 10.5625C20.7548 12.9014 20.061 15.2312 18.6077 17.0756L24.3981 22.866L22.8663 24.3978L17.0758 18.6074C15.2309 20.0553 12.9031 20.7448 10.5672 20.5353C8.23137 20.3257 6.06344 19.2329 4.50568 17.4798C2.94793 15.7266 2.11771 13.4452 2.18439 11.1009C2.25107 8.75656 3.20962 6.52601 4.86451 4.86422Z" fill="#F96339"/>
</svg>
