<svg width="40" height="40" viewBox="0 0 40 40" fill="none" xmlns="http://www.w3.org/2000/svg">
<path d="M8.07479 29.4915C7.52943 29.1841 7.09598 28.7663 6.77443 28.2379C6.45288 27.7081 6.29211 27.1146 6.29211 26.4573V18.2196L2.90948 16.3434C2.60068 16.1593 2.3712 15.9412 2.22105 15.689C2.0709 15.4369 1.99725 15.1578 2.00008 14.8519C2.00291 14.5459 2.07799 14.2668 2.2253 14.0147C2.37262 13.7626 2.60139 13.5444 2.9116 13.3603L17.4025 5.45614C17.6603 5.31308 17.9259 5.21109 18.1993 5.15018C18.4727 5.08927 18.7532 5.0581 19.0407 5.05669C19.3283 5.05527 19.6094 5.08643 19.8842 5.15018C20.159 5.21392 20.4253 5.3152 20.6831 5.45402L37.0885 14.3504C37.3888 14.5275 37.6154 14.7492 37.7684 15.0155C37.9228 15.2832 38 15.5722 38 15.8824V27.3561C38 27.6564 37.898 27.9086 37.694 28.1125C37.4901 28.3165 37.2379 28.4185 36.9376 28.4185C36.6373 28.4185 36.3845 28.3165 36.1791 28.1125C35.9737 27.9086 35.8724 27.6564 35.8752 27.3561V16.046L31.7893 18.2196V26.4573C31.7893 27.1146 31.6285 27.7081 31.307 28.2379C30.9854 28.7677 30.5527 29.1855 30.0088 29.4915L20.6917 34.5357C20.4282 34.6844 20.159 34.79 19.8842 34.8523C19.6094 34.9146 19.3283 34.9451 19.0407 34.9437C18.7532 34.9422 18.472 34.9118 18.1972 34.8523C17.9224 34.7928 17.6532 34.6866 17.3898 34.5336L8.07479 29.4915ZM18.5499 22.4692C18.7411 22.5768 18.9111 22.6306 19.0598 22.6306C19.21 22.6306 19.3807 22.5768 19.5719 22.4692L33.5529 14.8519L19.5719 7.27707C19.3821 7.168 19.2121 7.11346 19.062 7.11346C18.9118 7.11346 18.7418 7.168 18.552 7.27707L4.52855 14.8519L18.5499 22.4692ZM18.5095 32.736C18.7007 32.8451 18.8778 32.8996 19.0407 32.8996C19.2036 32.8996 19.3807 32.8451 19.5719 32.736L29.0526 27.6132C29.2708 27.4772 29.4266 27.3207 29.5201 27.1436C29.6135 26.9666 29.6617 26.7414 29.6645 26.468V19.3882L20.7044 24.2795C20.4395 24.4282 20.1704 24.5337 19.897 24.596C19.6264 24.657 19.341 24.6874 19.0407 24.6874C18.7404 24.6874 18.4543 24.657 18.1823 24.596C17.9103 24.5351 17.6419 24.4289 17.377 24.2773L8.41687 19.3904V26.4701C8.41687 26.6882 8.46433 26.9 8.55923 27.1054C8.65414 27.3094 8.81066 27.4794 9.02881 27.6153L18.5095 32.736Z" fill="#005D19"/>
</svg>
