<svg width="40" height="40" viewBox="0 0 40 40" fill="none" xmlns="http://www.w3.org/2000/svg">
<path d="M34.6195 24.2765L30.0637 21.2956L31.8178 18.0798C32.2409 17.2769 32.4626 16.3831 32.4637 15.4755V10.3776C32.4672 8.94414 32.052 7.54089 31.2692 6.34012C30.4863 5.13935 29.3698 4.19334 28.0568 3.61826C26.7438 3.04317 25.2914 2.86404 23.878 3.10287C22.4646 3.3417 21.1517 3.98809 20.1006 4.96266L21.6404 6.62494C22.3688 5.9515 23.2778 5.50522 24.2561 5.34083C25.2344 5.17644 26.2393 5.30108 27.1478 5.69946C28.0563 6.09784 28.8288 6.75266 29.3706 7.58362C29.9123 8.41459 30.1999 9.38559 30.1979 10.3776V15.4755C30.1977 16.004 30.0711 16.5248 29.8287 16.9944L27.0733 22.0461L33.3789 26.1722C33.7952 26.4446 34.1368 26.8167 34.3726 27.2547C34.6085 27.6927 34.7311 28.1827 34.7294 28.6801V32.4685H29.6315V34.7343H36.9951V28.6801C36.9974 27.8062 36.7813 26.9457 36.3664 26.1766C35.9515 25.4076 35.351 24.7544 34.6195 24.2765Z" fill="#005D19"/>
<path d="M24.4251 26.5425L19.8694 23.5617L21.6234 20.3459C22.0465 19.5429 22.2682 18.6492 22.2693 17.7416V12.6436C22.2678 10.6896 21.4914 8.81591 20.1102 7.43365C18.729 6.05139 16.8559 5.27345 14.9019 5.27051C10.8436 5.27051 7.54197 8.57813 7.54197 12.6436V17.7416C7.53764 18.6488 7.75687 19.543 8.18027 20.3454L9.94386 23.5786L5.41458 26.5425C4.68388 27.0197 4.08391 27.6718 3.66911 28.4397C3.25432 29.2075 3.03784 30.0668 3.03931 30.9395L3.00391 37.0003H26.8007V30.9461C26.803 30.0723 26.5869 29.2118 26.172 28.4427C25.7572 27.6737 25.1567 27.0205 24.4251 26.5425ZM24.535 34.7346H5.28281L5.30476 30.9461C5.30307 30.4487 5.42571 29.9587 5.66156 29.5207C5.8974 29.0827 6.23897 28.7106 6.65522 28.4382L12.9343 24.3295L10.1693 19.2605C9.92961 18.7901 9.80565 18.2694 9.80771 17.7416V12.6436C9.80771 11.2916 10.3448 9.99492 11.3009 9.03888C12.2569 8.08283 13.5536 7.54573 14.9056 7.54573C16.2577 7.54573 17.5543 8.08283 18.5104 9.03888C19.4664 9.99492 20.0035 11.2916 20.0035 12.6436V17.7416C20.0033 18.2701 19.8767 18.7908 19.6343 19.2605L16.8789 24.3122L23.1846 28.4383C23.6008 28.7107 23.9424 29.0828 24.1782 29.5208C24.4141 29.9588 24.5367 30.4488 24.535 30.9462V34.7346Z" fill="#005D19"/>
</svg>
