<svg width="28" height="28" viewBox="0 0 28 28" fill="none" xmlns="http://www.w3.org/2000/svg">
<circle cx="14" cy="14" r="14" fill="#1DC322"/>
<path d="M17.002 10.9902C17.3061 10.9902 17.6024 11.0136 17.8909 11.0526C17.3607 8.73682 14.9279 6.98242 12.0039 6.98242C8.69008 6.98242 6 9.22805 6 11.9961C6 13.5945 6.89669 15.0059 8.29241 15.9259L7.50488 17.5088L9.65694 16.5809C10.117 16.7447 10.6004 16.8772 11.115 16.9474C11.0449 16.6433 11.0059 16.3314 11.0059 16.0039C10.9981 13.2437 13.6882 10.9902 17.002 10.9902ZM14.0001 9.23585C14.0984 9.23585 14.1957 9.25521 14.2865 9.29283C14.3773 9.33044 14.4598 9.38558 14.5294 9.45509C14.5989 9.5246 14.654 9.60712 14.6916 9.69794C14.7292 9.78875 14.7486 9.88609 14.7486 9.98439C14.7486 10.0827 14.7292 10.18 14.6916 10.2708C14.654 10.3617 14.5989 10.4442 14.5294 10.5137C14.4598 10.5832 14.3773 10.6383 14.2865 10.676C14.1957 10.7136 14.0984 10.7329 14.0001 10.7329C13.8015 10.7329 13.6111 10.6541 13.4708 10.5137C13.3304 10.3733 13.2515 10.1829 13.2515 9.98439C13.2515 9.78586 13.3304 9.59547 13.4708 9.45509C13.6111 9.31471 13.8015 9.23585 14.0001 9.23585ZM10 10.7407C9.8015 10.7407 9.6111 10.6619 9.47073 10.5215C9.33035 10.3811 9.25148 10.1907 9.25148 9.99219C9.25148 9.79366 9.33035 9.60327 9.47073 9.46289C9.6111 9.32251 9.8015 9.24364 10 9.24364C10.1986 9.24364 10.3889 9.32251 10.5293 9.46289C10.6697 9.60327 10.7486 9.79366 10.7486 9.99219C10.7486 10.1907 10.6697 10.3811 10.5293 10.5215C10.3889 10.6619 10.1986 10.7407 10 10.7407Z" fill="white"/>
<path d="M21.9999 16.0039C21.9999 13.7895 19.7621 11.9961 17.0019 11.9961C14.2416 11.9961 12.0038 13.7895 12.0038 16.0039C12.0038 18.2184 14.2416 20.0117 17.0019 20.0117C17.4541 20.0117 17.8908 19.9494 18.304 19.8558L21.0019 21.0176L20.0662 19.1462C21.2358 18.4133 21.9999 17.2905 21.9999 16.0039ZM15.497 15.7544C15.3489 15.7544 15.2042 15.7105 15.0811 15.6282C14.958 15.546 14.8621 15.4291 14.8054 15.2923C14.7488 15.1555 14.7339 15.005 14.7628 14.8598C14.7917 14.7146 14.863 14.5812 14.9677 14.4766C15.0724 14.3719 15.2057 14.3006 15.351 14.2717C15.4962 14.2428 15.6467 14.2576 15.7834 14.3143C15.9202 14.371 16.0371 14.4669 16.1194 14.59C16.2016 14.7131 16.2455 14.8578 16.2455 15.0059C16.2533 15.4191 15.9102 15.7544 15.497 15.7544ZM18.499 15.7544C18.3004 15.7544 18.11 15.6755 17.9697 15.5352C17.8293 15.3948 17.7504 15.2044 17.7504 15.0059C17.7504 14.8073 17.8293 14.6169 17.9697 14.4766C18.11 14.3362 18.3004 14.2573 18.499 14.2573C18.6975 14.2573 18.8879 14.3362 19.0283 14.4766C19.1686 14.6169 19.2475 14.8073 19.2475 15.0059C19.2475 15.2044 19.1686 15.3948 19.0283 15.5352C18.8879 15.6755 18.6975 15.7544 18.499 15.7544Z" fill="white"/>
</svg>
