<svg width="28" height="28" viewBox="0 0 28 28" fill="none" xmlns="http://www.w3.org/2000/svg">
<circle cx="14" cy="14" r="13.5" stroke="white"/>
<path d="M13.0073 14.5628C11.7714 14.2416 10.3759 14.8568 9.83871 15.9457C9.29246 17.0563 9.82056 18.2886 11.0691 18.6914C12.3612 19.1088 13.8857 18.47 14.4156 17.2705C14.9364 16.0981 14.2849 14.8931 13.0073 14.5628ZM12.0636 17.3975C11.8132 17.7986 11.2742 17.9728 10.8695 17.7895C10.4702 17.608 10.3523 17.1416 10.6045 16.7515C10.8532 16.3631 11.3722 16.1889 11.7733 16.3576C12.1798 16.5301 12.3104 16.9928 12.0636 17.3975ZM12.8893 16.3359C12.7986 16.4919 12.5972 16.5663 12.4411 16.501C12.2868 16.4375 12.2378 16.2633 12.3249 16.1108C12.4157 15.9584 12.6081 15.8858 12.7623 15.9457C12.9202 16.0038 12.9765 16.1798 12.8893 16.3359ZM18.9598 12.7571C19.232 12.8442 19.5223 12.6954 19.6113 12.425C19.8254 11.7608 19.6911 11.0022 19.1902 10.4469C18.9525 10.1834 18.6495 9.98718 18.3118 9.87791C17.9741 9.76864 17.6136 9.75021 17.2666 9.82446C17.2002 9.83857 17.1372 9.86565 17.0813 9.90413C17.0254 9.94261 16.9776 9.99175 16.9406 10.0487C16.9037 10.1057 16.8784 10.1694 16.8661 10.2362C16.8539 10.3029 16.8549 10.3715 16.8691 10.4379C16.8833 10.5042 16.9105 10.567 16.949 10.6228C16.9875 10.6786 17.0367 10.7263 17.0937 10.763C17.1507 10.7998 17.2144 10.8249 17.2811 10.837C17.3478 10.8491 17.4163 10.8479 17.4825 10.8335C17.8165 10.7627 18.1776 10.8661 18.4244 11.1365C18.5409 11.2653 18.6213 11.4226 18.6573 11.5925C18.6933 11.7624 18.6837 11.9388 18.6295 12.1038C18.6081 12.1684 18.5997 12.2366 18.6047 12.3044C18.6097 12.3722 18.6281 12.4384 18.6588 12.4991C18.6895 12.5598 18.7319 12.6139 18.7835 12.6582C18.8352 12.7024 18.8951 12.7361 18.9598 12.7571ZM20.7709 9.0187C19.7419 7.8772 18.223 7.44166 16.8201 7.73928C16.7429 7.7556 16.6697 7.78704 16.6047 7.83178C16.5396 7.87652 16.4841 7.93368 16.4413 7.99997C16.3984 8.06626 16.3691 8.14037 16.355 8.21803C16.3409 8.29569 16.3424 8.37537 16.3592 8.45249C16.3756 8.52971 16.4071 8.60294 16.4518 8.66799C16.4966 8.73305 16.5537 8.78865 16.6199 8.83162C16.6862 8.8746 16.7602 8.9041 16.8378 8.91845C16.9155 8.9328 16.9952 8.93171 17.0724 8.91525C18.0705 8.70293 19.1485 9.01325 19.8817 9.82446C20.613 10.6357 20.8108 11.7427 20.4987 12.7118C20.3971 13.0275 20.5695 13.3651 20.8852 13.4685C21.201 13.5702 21.5386 13.3977 21.6402 13.0838V13.082C22.0776 11.7136 21.8017 10.1584 20.7709 9.0187ZM17.938 13.7643C17.7166 13.699 17.566 13.6536 17.6822 13.3633C17.9326 12.7335 17.958 12.1891 17.6876 11.8026C17.1795 11.0748 15.7857 11.1148 14.1887 11.7826C14.1887 11.7826 13.6878 12.0022 13.8149 11.6048C14.0599 10.8153 14.0236 10.1547 13.6407 9.77183C12.775 8.90437 10.4721 9.80449 8.49577 11.779C7.01854 13.258 6.16016 14.826 6.16016 16.1816C6.16016 18.7749 9.48482 20.352 12.7387 20.352C17.0034 20.352 19.8399 17.8748 19.8399 15.9058C19.8399 14.7171 18.8382 14.0438 17.938 13.7643ZM12.7478 19.4228C10.1527 19.6787 7.91141 18.5063 7.74264 16.8005C7.57387 15.0964 9.5429 13.5066 12.138 13.2508C14.7332 12.9931 16.9744 14.1672 17.1432 15.8713C17.3101 17.5754 15.3429 19.1651 12.7478 19.4228Z" fill="white"/>
</svg>
