<svg width="28" height="28" viewBox="0 0 28 28" fill="none" xmlns="http://www.w3.org/2000/svg">
<circle cx="14" cy="14" r="14" fill="#F0503E"/>
<path d="M13.0072 14.5626C11.7713 14.2414 10.3758 14.8566 9.83858 15.9454C9.29234 17.0561 9.82044 18.2883 11.069 18.6912C12.3611 19.1086 13.8855 18.4698 14.4154 17.2702C14.9363 16.0979 14.2848 14.8929 13.0072 14.5626ZM12.0635 17.3973C11.8131 17.7983 11.2741 17.9726 10.8694 17.7893C10.4701 17.6078 10.3522 17.1414 10.6044 16.7512C10.853 16.3628 11.3721 16.1886 11.7731 16.3574C12.1796 16.5298 12.3103 16.9926 12.0635 17.3973ZM12.8892 16.3356C12.7985 16.4917 12.597 16.5661 12.441 16.5008C12.2867 16.4373 12.2377 16.263 12.3248 16.1106C12.4156 15.9582 12.6079 15.8856 12.7622 15.9454C12.9201 16.0035 12.9763 16.1796 12.8892 16.3356ZM18.9596 12.7569C19.2319 12.844 19.5222 12.6952 19.6111 12.4248C19.8253 11.7606 19.691 11.002 19.1901 10.4467C18.9523 10.1832 18.6494 9.98694 18.3117 9.87767C17.974 9.7684 17.6135 9.74996 17.2665 9.82421C17.2001 9.83833 17.1371 9.8654 17.0812 9.90389C17.0252 9.94237 16.9774 9.99151 16.9405 10.0485C16.9036 10.1055 16.8783 10.1692 16.866 10.2359C16.8538 10.3027 16.8548 10.3712 16.869 10.4376C16.8832 10.5039 16.9104 10.5668 16.9489 10.6226C16.9874 10.6784 17.0366 10.726 17.0936 10.7628C17.1506 10.7995 17.2142 10.8247 17.281 10.8368C17.3477 10.8489 17.4162 10.8477 17.4824 10.8332C17.8163 10.7625 18.1775 10.8659 18.4243 11.1363C18.5408 11.2651 18.6212 11.4224 18.6572 11.5923C18.6932 11.7622 18.6836 11.9386 18.6294 12.1036C18.608 12.1681 18.5995 12.2363 18.6046 12.3042C18.6096 12.372 18.628 12.4382 18.6587 12.4989C18.6894 12.5596 18.7318 12.6136 18.7834 12.6579C18.8351 12.7022 18.895 12.7358 18.9596 12.7569ZM20.7708 9.01845C19.7418 7.87696 18.2228 7.44141 16.82 7.73904C16.7428 7.75536 16.6696 7.7868 16.6045 7.83154C16.5395 7.87628 16.484 7.93344 16.4412 7.99973C16.3983 8.06602 16.369 8.14013 16.3549 8.21779C16.3408 8.29545 16.3422 8.37513 16.3591 8.45224C16.3755 8.52947 16.407 8.60269 16.4517 8.66775C16.4965 8.7328 16.5536 8.7884 16.6198 8.83138C16.686 8.87435 16.7601 8.90386 16.8377 8.91821C16.9154 8.93256 16.9951 8.93147 17.0723 8.91501C18.0704 8.70268 19.1484 9.01301 19.8815 9.82421C20.6129 10.6354 20.8107 11.7424 20.4986 12.7115C20.3969 13.0273 20.5694 13.3648 20.8851 13.4683C21.2009 13.5699 21.5384 13.3975 21.6401 13.0835V13.0817C22.0774 11.7134 21.8016 10.1581 20.7708 9.01845ZM17.9379 13.7641C17.7165 13.6988 17.5659 13.6534 17.682 13.363C17.9325 12.7333 17.9579 12.1889 17.6875 11.8023C17.1793 11.0746 15.7856 11.1145 14.1886 11.7824C14.1886 11.7824 13.6877 12.0019 13.8148 11.6045C14.0598 10.8151 14.0235 10.1545 13.6405 9.77158C12.7749 8.90412 10.4719 9.80425 8.49565 11.7787C7.01842 13.2578 6.16003 14.8257 6.16003 16.1814C6.16003 18.7747 9.4847 20.3517 12.7386 20.3517C17.0033 20.3517 19.8398 17.8746 19.8398 15.9055C19.8398 14.7168 18.8381 14.0436 17.9379 13.7641ZM12.7477 19.4226C10.1525 19.6784 7.91129 18.5061 7.74252 16.8002C7.57374 15.0961 9.54278 13.5064 12.1379 13.2505C14.733 12.9928 16.9743 14.167 17.1431 15.871C17.31 17.5751 15.3428 19.1649 12.7477 19.4226Z" fill="white"/>
</svg>
