<svg width="28" height="28" viewBox="0 0 28 28" fill="none" xmlns="http://www.w3.org/2000/svg">
<circle cx="14" cy="14" r="13.5" stroke="white"/>
<path d="M12.6 16.1001L16.233 14.0001L12.6 11.9001V16.1001ZM20.692 10.6191C20.783 10.9481 20.846 11.3891 20.888 11.9491C20.937 12.5091 20.958 12.9921 20.958 13.4121L21 14.0001C21 15.5331 20.888 16.6601 20.692 17.3811C20.517 18.0111 20.111 18.4171 19.481 18.5921C19.152 18.6831 18.55 18.7461 17.626 18.7881C16.716 18.8371 15.883 18.8581 15.113 18.8581L14 18.9001C11.067 18.9001 9.24 18.7881 8.519 18.5921C7.889 18.4171 7.483 18.0111 7.308 17.3811C7.217 17.0521 7.154 16.6111 7.112 16.0511C7.063 15.4911 7.042 15.0081 7.042 14.5881L7 14.0001C7 12.4671 7.112 11.3401 7.308 10.6191C7.483 9.9891 7.889 9.5831 8.519 9.4081C8.848 9.3171 9.45 9.2541 10.374 9.2121C11.284 9.1631 12.117 9.1421 12.887 9.1421L14 9.1001C16.933 9.1001 18.76 9.2121 19.481 9.4081C20.111 9.5831 20.517 9.9891 20.692 10.6191Z" fill="white"/>
</svg>
