<svg width="28" height="28" viewBox="0 0 28 28" fill="none" xmlns="http://www.w3.org/2000/svg">
<circle cx="14" cy="14" r="14" fill="#ED3131"/>
<path d="M12.6 16.1L16.233 14L12.6 11.9V16.1ZM20.692 10.619C20.783 10.948 20.846 11.389 20.888 11.949C20.937 12.509 20.958 12.992 20.958 13.412L21 14C21 15.533 20.888 16.66 20.692 17.381C20.517 18.011 20.111 18.417 19.481 18.592C19.152 18.683 18.55 18.746 17.626 18.788C16.716 18.837 15.883 18.858 15.113 18.858L14 18.9C11.067 18.9 9.24 18.788 8.519 18.592C7.889 18.417 7.483 18.011 7.308 17.381C7.217 17.052 7.154 16.611 7.112 16.051C7.063 15.491 7.042 15.008 7.042 14.588L7 14C7 12.467 7.112 11.34 7.308 10.619C7.483 9.98898 7.889 9.58298 8.519 9.40798C8.848 9.31698 9.45 9.25398 10.374 9.21198C11.284 9.16298 12.117 9.14198 12.887 9.14198L14 9.09998C16.933 9.09998 18.76 9.21198 19.481 9.40798C20.111 9.58298 20.517 9.98898 20.692 10.619Z" fill="white"/>
</svg>
