<?xml version="1.0" encoding="utf-8"?>
<!-- Generator: Adobe Illustrator 14.0.0, SVG Export Plug-In . SVG Version: 6.00 Build 43363)  -->
<!DOCTYPE svg PUBLIC "-//W3C//DTD SVG 1.1//EN" "http://www.w3.org/Graphics/SVG/1.1/DTD/svg11.dtd">
<svg version="1.1" id="Layer_1" xmlns="http://www.w3.org/2000/svg" xmlns:xlink="http://www.w3.org/1999/xlink" x="0px" y="0px"
	 width="224px" height="70px" viewBox="0 0 224 70" enable-background="new 0 0 224 70" xml:space="preserve">
<g>
	<path fill="#F26522" d="M9.301,9.407c0,5.128,4.174,9.302,9.299,9.302s9.294-4.174,9.294-9.302c0-5.129-4.169-9.296-9.294-9.296
		S9.301,4.278,9.301,9.407"/>
	<path fill="#006536" d="M4.679,23.364h18.542c2.584,0,4.68,2.096,4.68,4.681v13.921c0-2.584-2.096-4.68-4.68-4.68H4.679
		C2.093,37.287,0,35.189,0,32.604v-13.92C0,21.27,2.093,23.364,4.679,23.364"/>
	<path fill="#006536" d="M53.442,51.287H34.9c-2.584,0-4.679,2.096-4.679,4.68v13.922c0-2.582,2.095-4.68,4.679-4.68h18.542
		c2.587,0,4.682-2.098,4.682-4.682v-13.92C58.125,49.193,56.029,51.287,53.442,51.287"/>
	<path fill="#006536" d="M53.442,32.671H34.9c-2.584,0-4.679,2.097-4.679,4.682v13.92c0-2.584,2.095-4.682,4.679-4.682h18.542
		c2.587,0,4.682-2.094,4.682-4.678V27.992C58.125,30.578,56.029,32.671,53.442,32.671"/>
	<path fill="#006536" d="M4.679,41.982h18.542c2.584,0,4.68,2.094,4.68,4.678v13.922c0-2.584-2.096-4.682-4.68-4.682H4.679
		C2.093,55.9,0,53.805,0,51.221V37.299C0,39.885,2.093,41.982,4.679,41.982"/>
	<path fill="#006536" d="M53.442,14.073H34.9c-2.584,0-4.679,2.097-4.679,4.681v13.922c0-2.584,2.095-4.681,4.679-4.681h18.542
		c2.587,0,4.682-2.096,4.682-4.682V9.394C58.125,11.979,56.029,14.073,53.442,14.073"/>
	<path d="M78.487,38.639l0.116,2.479h-0.296c-0.057-0.436-0.136-0.748-0.233-0.936c-0.162-0.301-0.375-0.523-0.644-0.666
		c-0.267-0.143-0.619-0.213-1.055-0.213h-1.489v8.074c0,0.65,0.069,1.055,0.21,1.215c0.197,0.217,0.501,0.328,0.912,0.328h0.367
		v0.287h-4.482V48.92h0.374c0.448,0,0.765-0.135,0.951-0.406c0.114-0.166,0.172-0.547,0.172-1.137v-8.074h-1.271
		c-0.493,0-0.844,0.035-1.052,0.107c-0.27,0.1-0.501,0.287-0.693,0.57c-0.193,0.279-0.307,0.658-0.343,1.137h-0.296l0.124-2.479
		H78.487z"/>
	<path d="M81.277,38.125v5.221c0.576-0.633,1.034-1.039,1.371-1.219c0.338-0.18,0.676-0.27,1.014-0.27
		c0.405,0,0.753,0.111,1.045,0.334c0.29,0.225,0.506,0.574,0.646,1.055c0.099,0.332,0.148,0.939,0.148,1.822v2.525
		c0,0.453,0.036,0.762,0.109,0.928c0.051,0.125,0.14,0.225,0.265,0.295c0.125,0.074,0.354,0.111,0.687,0.111v0.279h-3.508v-0.279
		h0.164c0.333,0,0.563-0.053,0.694-0.154c0.129-0.1,0.22-0.25,0.272-0.447c0.016-0.084,0.023-0.326,0.023-0.732v-2.525
		c0-0.779-0.041-1.291-0.121-1.535s-0.209-0.428-0.386-0.549c-0.177-0.123-0.39-0.184-0.639-0.184c-0.254,0-0.52,0.066-0.795,0.203
		c-0.275,0.135-0.604,0.408-0.989,0.816v3.773c0,0.488,0.027,0.793,0.082,0.912c0.055,0.119,0.156,0.221,0.304,0.301
		s0.404,0.121,0.768,0.121v0.279h-3.539v-0.279c0.317,0,0.567-0.051,0.749-0.148c0.104-0.053,0.187-0.15,0.249-0.297
		c0.062-0.145,0.094-0.441,0.094-0.889v-6.461c0-0.816-0.02-1.316-0.059-1.504c-0.039-0.188-0.098-0.314-0.179-0.383
		c-0.081-0.066-0.189-0.1-0.323-0.1c-0.11,0-0.286,0.041-0.531,0.123l-0.109-0.271l2.135-0.873H81.277z"/>
	<path d="M88.043,44.756c-0.005,1.061,0.251,1.893,0.771,2.496c0.52,0.602,1.131,0.904,1.832,0.904c0.468,0,0.874-0.129,1.219-0.387
		c0.346-0.258,0.635-0.697,0.869-1.322l0.242,0.158c-0.109,0.711-0.426,1.359-0.951,1.943s-1.182,0.877-1.972,0.877
		c-0.857,0-1.591-0.334-2.202-1.002c-0.611-0.666-0.916-1.566-0.916-2.691c0-1.223,0.313-2.174,0.94-2.857
		c0.626-0.684,1.411-1.025,2.357-1.025c0.8,0,1.458,0.264,1.973,0.791c0.514,0.527,0.771,1.232,0.771,2.115H88.043z M88.043,44.305
		h3.305c-0.026-0.457-0.082-0.779-0.165-0.967c-0.13-0.291-0.323-0.52-0.581-0.686c-0.257-0.166-0.526-0.248-0.808-0.248
		c-0.431,0-0.816,0.166-1.156,0.502C88.299,43.24,88.1,43.707,88.043,44.305"/>
	<path d="M98.84,39.215v4.178h2.322c0.603,0,1.005-0.09,1.208-0.271c0.27-0.24,0.421-0.66,0.453-1.264h0.289v3.678h-0.289
		c-0.073-0.514-0.146-0.844-0.218-0.988c-0.095-0.182-0.248-0.324-0.46-0.43c-0.213-0.104-0.541-0.154-0.982-0.154H98.84v3.482
		c0,0.469,0.02,0.752,0.062,0.854c0.041,0.102,0.113,0.182,0.217,0.242c0.104,0.059,0.302,0.09,0.593,0.09h1.793
		c0.597,0,1.03-0.041,1.301-0.125c0.27-0.082,0.53-0.248,0.779-0.49c0.322-0.322,0.652-0.809,0.989-1.459h0.312l-0.912,2.65h-8.145
		V48.92h0.375c0.249,0,0.485-0.061,0.709-0.18c0.167-0.084,0.279-0.209,0.339-0.375s0.09-0.506,0.09-1.02v-6.867
		c0-0.67-0.068-1.084-0.202-1.24c-0.188-0.207-0.5-0.311-0.936-0.311h-0.375v-0.289h8.145l0.117,2.314h-0.304
		c-0.108-0.555-0.23-0.938-0.363-1.145c-0.131-0.209-0.328-0.367-0.588-0.477c-0.208-0.078-0.574-0.117-1.099-0.117H98.84z"/>
	<path d="M110.476,48.404c-0.348,0.365-0.688,0.625-1.021,0.783s-0.691,0.238-1.076,0.238c-0.779,0-1.46-0.326-2.042-0.979
		c-0.583-0.652-0.873-1.49-0.873-2.514s0.322-1.959,0.966-2.811c0.645-0.848,1.474-1.273,2.486-1.273c0.628,0,1.148,0.201,1.559,0.6
		v-1.316c0-0.816-0.019-1.316-0.059-1.504c-0.038-0.188-0.099-0.314-0.184-0.383c-0.082-0.066-0.187-0.1-0.311-0.1
		c-0.136,0-0.315,0.041-0.538,0.123l-0.102-0.271l2.127-0.873h0.352v8.254c0,0.836,0.019,1.346,0.058,1.529
		c0.039,0.186,0.101,0.314,0.187,0.387c0.086,0.072,0.186,0.109,0.3,0.109c0.14,0,0.327-0.045,0.562-0.133l0.085,0.273l-2.12,0.881
		h-0.359V48.404z M110.476,47.859v-3.68c-0.031-0.354-0.125-0.676-0.28-0.967c-0.156-0.291-0.362-0.51-0.62-0.658
		c-0.257-0.148-0.508-0.223-0.751-0.223c-0.458,0-0.865,0.207-1.224,0.617c-0.474,0.539-0.709,1.33-0.709,2.367
		c0,1.051,0.229,1.855,0.686,2.414s0.967,0.838,1.528,0.838C109.577,48.568,110.034,48.332,110.476,47.859"/>
	<path d="M119.354,42.068v4.324c0,0.826,0.02,1.332,0.059,1.516c0.039,0.186,0.102,0.314,0.188,0.387
		c0.085,0.072,0.186,0.109,0.3,0.109c0.161,0,0.343-0.045,0.546-0.133l0.108,0.271l-2.135,0.883h-0.352v-1.512
		c-0.612,0.664-1.08,1.082-1.402,1.254s-0.663,0.258-1.021,0.258c-0.399,0-0.748-0.115-1.04-0.348
		c-0.294-0.23-0.498-0.529-0.612-0.893c-0.113-0.363-0.171-0.877-0.171-1.543v-3.188c0-0.338-0.037-0.572-0.109-0.701
		c-0.073-0.131-0.181-0.23-0.323-0.299c-0.144-0.072-0.401-0.104-0.775-0.098v-0.289h2.502v4.777c0,0.664,0.114,1.102,0.346,1.311
		c0.231,0.207,0.511,0.311,0.839,0.311c0.223,0,0.477-0.07,0.76-0.211s0.619-0.406,1.009-0.803v-4.045
		c0-0.404-0.073-0.678-0.222-0.822c-0.148-0.143-0.456-0.219-0.924-0.229v-0.289H119.354z"/>
	<path d="M126.82,46.496c-0.192,0.939-0.568,1.662-1.13,2.17c-0.562,0.506-1.182,0.76-1.862,0.76c-0.812,0-1.518-0.34-2.12-1.021
		c-0.604-0.68-0.904-1.6-0.904-2.76c0-1.121,0.333-2.033,1.002-2.734c0.667-0.701,1.469-1.053,2.404-1.053
		c0.701,0,1.278,0.186,1.729,0.557c0.452,0.373,0.679,0.758,0.679,1.158c0,0.197-0.063,0.357-0.191,0.479
		c-0.127,0.123-0.306,0.184-0.534,0.184c-0.307,0-0.538-0.1-0.694-0.295c-0.087-0.111-0.146-0.316-0.175-0.623
		s-0.134-0.541-0.315-0.703c-0.182-0.156-0.434-0.232-0.756-0.232c-0.52,0-0.938,0.191-1.255,0.576
		c-0.42,0.51-0.631,1.182-0.631,2.018c0,0.852,0.209,1.605,0.627,2.256c0.418,0.652,0.983,0.979,1.696,0.979
		c0.509,0,0.965-0.174,1.37-0.521c0.286-0.24,0.565-0.672,0.834-1.303L126.82,46.496z"/>
	<path d="M131.567,48.18c-0.732,0.566-1.192,0.893-1.38,0.98c-0.28,0.131-0.579,0.195-0.896,0.195c-0.493,0-0.899-0.17-1.22-0.508
		c-0.319-0.336-0.479-0.781-0.479-1.332c0-0.348,0.079-0.648,0.234-0.902c0.213-0.355,0.583-0.688,1.11-0.998
		c0.527-0.312,1.404-0.693,2.631-1.139v-0.281c0-0.711-0.113-1.199-0.339-1.465c-0.227-0.266-0.555-0.398-0.986-0.398
		c-0.327,0-0.587,0.09-0.779,0.266c-0.197,0.178-0.296,0.381-0.296,0.607l0.016,0.453c0,0.238-0.062,0.424-0.184,0.553
		c-0.122,0.131-0.282,0.195-0.479,0.195c-0.193,0-0.35-0.066-0.472-0.203c-0.122-0.135-0.184-0.318-0.184-0.553
		c0-0.447,0.229-0.857,0.687-1.232c0.456-0.373,1.099-0.561,1.925-0.561c0.634,0,1.153,0.107,1.559,0.318
		c0.307,0.162,0.532,0.414,0.678,0.758c0.094,0.223,0.141,0.68,0.141,1.371v2.424c0,0.682,0.013,1.098,0.039,1.252
		c0.025,0.152,0.068,0.256,0.129,0.307c0.059,0.053,0.128,0.078,0.206,0.078c0.083,0,0.156-0.018,0.218-0.055
		c0.109-0.068,0.32-0.258,0.632-0.568v0.438c-0.582,0.777-1.138,1.168-1.668,1.168c-0.255,0-0.457-0.088-0.608-0.264
		C131.65,48.906,131.572,48.605,131.567,48.18 M131.567,47.672v-2.719c-0.785,0.311-1.291,0.531-1.52,0.662
		c-0.411,0.229-0.704,0.467-0.881,0.717c-0.177,0.248-0.266,0.521-0.266,0.816c0,0.375,0.112,0.686,0.335,0.934
		c0.224,0.246,0.481,0.369,0.772,0.369C130.403,48.451,130.923,48.191,131.567,47.672"/>
	<path d="M136.361,39.723v2.346h1.668v0.545h-1.668v4.631c0,0.463,0.066,0.773,0.198,0.936c0.133,0.16,0.304,0.24,0.511,0.24
		c0.172,0,0.338-0.053,0.499-0.16c0.161-0.105,0.285-0.262,0.374-0.471h0.305c-0.183,0.51-0.439,0.893-0.772,1.148
		c-0.333,0.258-0.676,0.387-1.028,0.387c-0.239,0-0.474-0.066-0.701-0.199c-0.229-0.131-0.397-0.322-0.508-0.568
		c-0.108-0.246-0.163-0.627-0.163-1.141v-4.803h-1.13v-0.256c0.286-0.115,0.578-0.309,0.877-0.582s0.564-0.596,0.799-0.971
		c0.119-0.197,0.286-0.557,0.499-1.082H136.361z"/>
	<path d="M140.866,41.857v5.736c0,0.447,0.032,0.744,0.098,0.893c0.064,0.148,0.161,0.26,0.288,0.33
		c0.127,0.074,0.359,0.111,0.698,0.111v0.279h-3.469v-0.279c0.348,0,0.582-0.035,0.701-0.104c0.12-0.066,0.215-0.178,0.284-0.334
		c0.07-0.156,0.105-0.455,0.105-0.896v-2.752c0-0.773-0.023-1.273-0.069-1.504c-0.037-0.166-0.094-0.281-0.172-0.346
		s-0.185-0.098-0.319-0.098c-0.146,0-0.323,0.039-0.53,0.117l-0.109-0.281l2.151-0.873H140.866z M140.219,38.125
		c0.219,0,0.404,0.076,0.558,0.23c0.153,0.152,0.23,0.338,0.23,0.557c0,0.217-0.077,0.404-0.23,0.561s-0.339,0.234-0.558,0.234
		c-0.218,0-0.404-0.078-0.561-0.234c-0.155-0.156-0.233-0.344-0.233-0.561c0-0.219,0.076-0.404,0.229-0.557
		C139.808,38.201,139.996,38.125,140.219,38.125"/>
	<path d="M146.01,41.857c1.082,0,1.949,0.41,2.604,1.232c0.556,0.701,0.834,1.506,0.834,2.414c0,0.641-0.154,1.287-0.461,1.941
		s-0.729,1.148-1.266,1.482c-0.538,0.332-1.138,0.498-1.797,0.498c-1.075,0-1.931-0.43-2.564-1.287
		c-0.535-0.721-0.803-1.533-0.803-2.43c0-0.656,0.162-1.307,0.487-1.953c0.324-0.648,0.752-1.125,1.281-1.434
		C144.857,42.012,145.418,41.857,146.01,41.857 M145.769,42.365c-0.275,0-0.552,0.08-0.83,0.244
		c-0.277,0.164-0.502,0.451-0.674,0.861s-0.257,0.938-0.257,1.582c0,1.039,0.206,1.936,0.619,2.689s0.958,1.129,1.633,1.129
		c0.504,0,0.92-0.207,1.247-0.623s0.491-1.129,0.491-2.143c0-1.268-0.272-2.266-0.818-2.992
		C146.811,42.613,146.34,42.365,145.769,42.365"/>
	<path d="M152.262,43.369c0.836-1.008,1.635-1.512,2.393-1.512c0.391,0,0.725,0.098,1.006,0.293c0.28,0.193,0.504,0.516,0.67,0.963
		c0.114,0.311,0.172,0.789,0.172,1.434v3.047c0,0.453,0.036,0.76,0.108,0.92c0.058,0.131,0.149,0.232,0.277,0.303
		c0.127,0.074,0.362,0.111,0.705,0.111v0.279h-3.53v-0.279h0.148c0.332,0,0.564-0.053,0.697-0.154c0.132-0.1,0.225-0.25,0.276-0.447
		c0.021-0.078,0.031-0.322,0.031-0.732v-2.922c0-0.65-0.085-1.121-0.253-1.416c-0.169-0.293-0.454-0.439-0.854-0.439
		c-0.617,0-1.233,0.338-1.847,1.012v3.766c0,0.482,0.028,0.783,0.086,0.896c0.072,0.15,0.173,0.26,0.3,0.332
		c0.127,0.068,0.386,0.105,0.775,0.105v0.279h-3.53v-0.279h0.156c0.363,0,0.608-0.094,0.736-0.277
		c0.127-0.184,0.19-0.537,0.19-1.057v-2.648c0-0.859-0.019-1.381-0.059-1.568c-0.039-0.188-0.098-0.314-0.179-0.381
		c-0.081-0.068-0.188-0.102-0.323-0.102c-0.146,0-0.32,0.039-0.522,0.117l-0.117-0.281l2.151-0.873h0.335V43.369z"/>
	<path d="M167.033,38.928v-0.289h3.741v0.289h-0.397c-0.416,0-0.735,0.174-0.959,0.521c-0.109,0.162-0.164,0.535-0.164,1.123v4.285
		c0,1.061-0.104,1.883-0.315,2.469c-0.21,0.582-0.623,1.086-1.239,1.504c-0.615,0.418-1.453,0.627-2.513,0.627
		c-1.154,0-2.03-0.201-2.627-0.602c-0.598-0.398-1.021-0.938-1.271-1.611c-0.166-0.463-0.249-1.332-0.249-2.604v-4.133
		c0-0.648-0.09-1.074-0.27-1.277c-0.18-0.201-0.469-0.303-0.869-0.303h-0.397v-0.289h4.567v0.289h-0.405
		c-0.437,0-0.748,0.137-0.936,0.412c-0.13,0.188-0.194,0.578-0.194,1.168v4.607c0,0.41,0.037,0.881,0.112,1.41
		c0.076,0.531,0.213,0.943,0.41,1.24c0.197,0.295,0.481,0.541,0.853,0.732c0.372,0.191,0.828,0.289,1.368,0.289
		c0.691,0,1.31-0.15,1.855-0.453c0.546-0.301,0.918-0.686,1.118-1.156c0.199-0.471,0.3-1.268,0.3-2.389v-4.281
		c0-0.658-0.072-1.072-0.218-1.238c-0.202-0.229-0.505-0.342-0.904-0.342H167.033z"/>
	<path d="M172.887,43.369c0.837-1.008,1.635-1.512,2.394-1.512c0.39,0,0.725,0.098,1.005,0.293c0.281,0.193,0.504,0.516,0.671,0.963
		c0.114,0.311,0.171,0.789,0.171,1.434v3.047c0,0.453,0.036,0.76,0.109,0.92c0.057,0.131,0.149,0.232,0.276,0.303
		c0.127,0.074,0.362,0.111,0.706,0.111v0.279h-3.531v-0.279h0.148c0.332,0,0.565-0.053,0.697-0.154
		c0.133-0.1,0.225-0.25,0.276-0.447c0.021-0.078,0.031-0.322,0.031-0.732v-2.922c0-0.65-0.084-1.121-0.253-1.416
		c-0.169-0.293-0.453-0.439-0.854-0.439c-0.618,0-1.234,0.338-1.848,1.012v3.766c0,0.482,0.029,0.783,0.086,0.896
		c0.073,0.15,0.173,0.26,0.301,0.332c0.127,0.068,0.386,0.105,0.775,0.105v0.279h-3.531v-0.279h0.156
		c0.363,0,0.608-0.094,0.736-0.277s0.191-0.537,0.191-1.057v-2.648c0-0.859-0.02-1.381-0.06-1.568
		c-0.038-0.188-0.099-0.314-0.179-0.381c-0.081-0.068-0.188-0.102-0.323-0.102c-0.146,0-0.319,0.039-0.522,0.117L170.4,42.73
		l2.151-0.873h0.335V43.369z"/>
	<path d="M180.931,41.857v5.736c0,0.447,0.032,0.744,0.098,0.893s0.161,0.26,0.288,0.33c0.128,0.074,0.359,0.111,0.698,0.111v0.279
		h-3.469v-0.279c0.349,0,0.582-0.035,0.702-0.104c0.119-0.066,0.214-0.178,0.284-0.334c0.069-0.156,0.105-0.455,0.105-0.896v-2.752
		c0-0.773-0.023-1.273-0.07-1.504c-0.037-0.166-0.094-0.281-0.172-0.346s-0.185-0.098-0.319-0.098c-0.146,0-0.322,0.039-0.53,0.117
		l-0.109-0.281l2.151-0.873H180.931z M180.284,38.125c0.218,0,0.403,0.076,0.557,0.23c0.153,0.152,0.23,0.338,0.23,0.557
		c0,0.217-0.077,0.404-0.23,0.561s-0.339,0.234-0.557,0.234s-0.405-0.078-0.562-0.234c-0.155-0.156-0.233-0.344-0.233-0.561
		c0-0.219,0.077-0.404,0.23-0.557C179.873,38.201,180.061,38.125,180.284,38.125"/>
	<path d="M182.058,42.068h3.358v0.289h-0.218c-0.203,0-0.357,0.049-0.464,0.146c-0.106,0.1-0.16,0.23-0.16,0.398
		c0,0.182,0.055,0.396,0.164,0.646l1.66,3.943l1.668-4.092c0.119-0.291,0.18-0.512,0.18-0.662c0-0.072-0.021-0.133-0.062-0.18
		c-0.058-0.078-0.13-0.131-0.219-0.16c-0.088-0.027-0.268-0.041-0.537-0.041v-0.289h2.33v0.289c-0.271,0.02-0.458,0.074-0.562,0.162
		c-0.182,0.156-0.345,0.416-0.49,0.779l-2.533,6.127h-0.32l-2.548-6.025c-0.115-0.279-0.224-0.48-0.328-0.604
		c-0.104-0.123-0.236-0.225-0.396-0.309c-0.089-0.047-0.263-0.09-0.522-0.131V42.068z"/>
	<path d="M190.967,44.756c-0.005,1.061,0.252,1.893,0.771,2.496c0.52,0.602,1.131,0.904,1.832,0.904c0.467,0,0.874-0.129,1.22-0.387
		s0.635-0.697,0.869-1.322l0.241,0.158c-0.109,0.711-0.426,1.359-0.951,1.943c-0.524,0.584-1.182,0.877-1.972,0.877
		c-0.857,0-1.591-0.334-2.202-1.002c-0.61-0.666-0.916-1.566-0.916-2.691c0-1.223,0.313-2.174,0.939-2.857
		c0.627-0.684,1.412-1.025,2.358-1.025c0.8,0,1.457,0.264,1.972,0.791s0.771,1.232,0.771,2.115H190.967z M190.967,44.305h3.305
		c-0.026-0.457-0.081-0.779-0.164-0.967c-0.13-0.291-0.323-0.52-0.58-0.686c-0.258-0.166-0.526-0.248-0.807-0.248
		c-0.432,0-0.817,0.166-1.157,0.502C191.223,43.24,191.023,43.707,190.967,44.305"/>
	<path d="M198.94,41.857v1.605c0.598-1.07,1.21-1.605,1.839-1.605c0.286,0,0.523,0.088,0.709,0.262
		c0.188,0.174,0.281,0.375,0.281,0.604c0,0.203-0.067,0.375-0.203,0.514c-0.135,0.141-0.296,0.211-0.483,0.211
		c-0.182,0-0.385-0.088-0.611-0.27c-0.226-0.178-0.394-0.268-0.502-0.268c-0.095,0-0.195,0.053-0.305,0.154
		c-0.234,0.215-0.476,0.564-0.725,1.055v3.42c0,0.395,0.05,0.693,0.147,0.896c0.067,0.141,0.188,0.258,0.358,0.352
		c0.172,0.092,0.419,0.141,0.741,0.141v0.279h-3.656v-0.279c0.364,0,0.635-0.059,0.811-0.172c0.131-0.084,0.222-0.217,0.273-0.398
		c0.025-0.088,0.039-0.34,0.039-0.756v-2.768c0-0.83-0.017-1.326-0.051-1.482c-0.034-0.16-0.096-0.275-0.188-0.348
		c-0.091-0.074-0.204-0.109-0.338-0.109c-0.161,0-0.344,0.039-0.547,0.117l-0.077-0.281l2.158-0.873H198.94z"/>
	<path d="M206.462,41.857v2.432h-0.258c-0.197-0.764-0.451-1.283-0.76-1.559s-0.703-0.414-1.181-0.414
		c-0.364,0-0.657,0.098-0.881,0.289c-0.223,0.193-0.335,0.406-0.335,0.641c0,0.289,0.083,0.539,0.25,0.746
		c0.16,0.215,0.487,0.439,0.981,0.68l1.138,0.553c1.055,0.516,1.582,1.193,1.582,2.035c0,0.648-0.245,1.172-0.736,1.57
		c-0.491,0.396-1.04,0.596-1.648,0.596c-0.437,0-0.935-0.078-1.496-0.234c-0.172-0.053-0.312-0.078-0.421-0.078
		c-0.12,0-0.214,0.068-0.28,0.203h-0.258v-2.549h0.258c0.145,0.727,0.423,1.275,0.834,1.645c0.41,0.369,0.87,0.553,1.379,0.553
		c0.358,0,0.651-0.104,0.877-0.314s0.339-0.465,0.339-0.76c0-0.359-0.126-0.66-0.378-0.904s-0.756-0.555-1.508-0.928
		c-0.754-0.373-1.247-0.711-1.481-1.014c-0.233-0.297-0.351-0.67-0.351-1.121c0-0.588,0.201-1.078,0.604-1.475
		c0.402-0.393,0.923-0.592,1.562-0.592c0.28,0,0.621,0.061,1.021,0.18c0.265,0.078,0.442,0.115,0.53,0.115
		c0.083,0,0.148-0.018,0.194-0.053c0.047-0.035,0.102-0.117,0.164-0.242H206.462z"/>
	<path d="M210.203,41.857v5.736c0,0.447,0.032,0.744,0.097,0.893c0.065,0.148,0.161,0.26,0.288,0.33
		c0.128,0.074,0.359,0.111,0.698,0.111v0.279h-3.469v-0.279c0.349,0,0.582-0.035,0.702-0.104c0.119-0.066,0.214-0.178,0.284-0.334
		s0.105-0.455,0.105-0.896v-2.752c0-0.773-0.023-1.273-0.07-1.504c-0.037-0.166-0.094-0.281-0.172-0.346s-0.185-0.098-0.319-0.098
		c-0.146,0-0.322,0.039-0.53,0.117l-0.108-0.281l2.15-0.873H210.203z M209.556,38.125c0.219,0,0.404,0.076,0.558,0.23
		c0.152,0.152,0.229,0.338,0.229,0.557c0,0.217-0.077,0.404-0.229,0.561c-0.153,0.156-0.339,0.234-0.558,0.234
		c-0.218,0-0.405-0.078-0.562-0.234c-0.155-0.156-0.233-0.344-0.233-0.561c0-0.219,0.077-0.404,0.23-0.557
		C209.145,38.201,209.332,38.125,209.556,38.125"/>
	<path d="M213.929,39.723v2.346h1.668v0.545h-1.668v4.631c0,0.463,0.066,0.773,0.199,0.936c0.132,0.16,0.303,0.24,0.511,0.24
		c0.171,0,0.337-0.053,0.498-0.16c0.161-0.105,0.286-0.262,0.375-0.471h0.304c-0.182,0.51-0.439,0.893-0.771,1.148
		c-0.333,0.258-0.676,0.387-1.029,0.387c-0.239,0-0.473-0.066-0.701-0.199c-0.229-0.131-0.397-0.322-0.507-0.568
		s-0.164-0.627-0.164-1.141v-4.803h-1.13v-0.256c0.286-0.115,0.578-0.309,0.877-0.582s0.565-0.596,0.799-0.971
		c0.119-0.197,0.286-0.557,0.499-1.082H213.929z"/>
	<path d="M216.204,42.068h3.328v0.289h-0.164c-0.233,0-0.409,0.049-0.525,0.15c-0.117,0.102-0.176,0.227-0.176,0.379
		c0,0.203,0.086,0.482,0.257,0.842l1.738,3.6l1.598-3.943c0.088-0.213,0.133-0.422,0.133-0.631c0-0.094-0.019-0.164-0.055-0.211
		c-0.042-0.057-0.106-0.102-0.195-0.137c-0.088-0.033-0.244-0.049-0.467-0.049v-0.289h2.322v0.289
		c-0.192,0.02-0.341,0.061-0.444,0.123s-0.218,0.18-0.343,0.352c-0.047,0.072-0.136,0.273-0.266,0.6l-2.907,7.123
		c-0.28,0.691-0.647,1.215-1.103,1.568c-0.454,0.352-0.892,0.529-1.312,0.529c-0.308,0-0.559-0.09-0.757-0.264
		c-0.197-0.178-0.296-0.381-0.296-0.609c0-0.219,0.071-0.393,0.214-0.525c0.144-0.133,0.339-0.199,0.589-0.199
		c0.171,0,0.405,0.057,0.702,0.172c0.207,0.076,0.337,0.117,0.39,0.117c0.155,0,0.325-0.082,0.51-0.242
		c0.185-0.162,0.371-0.473,0.558-0.936l0.506-1.238l-2.563-5.387c-0.078-0.16-0.203-0.361-0.374-0.6
		c-0.13-0.184-0.237-0.305-0.319-0.367c-0.12-0.082-0.312-0.156-0.577-0.217V42.068z"/>
	<path d="M73.241,57.82c1.081,0,1.948,0.41,2.603,1.23c0.556,0.701,0.834,1.508,0.834,2.416c0,0.639-0.153,1.287-0.46,1.941
		s-0.729,1.148-1.267,1.48c-0.538,0.334-1.136,0.5-1.797,0.5c-1.076,0-1.93-0.43-2.564-1.287c-0.535-0.723-0.802-1.533-0.802-2.432
		c0-0.654,0.161-1.307,0.487-1.953c0.324-0.646,0.752-1.123,1.281-1.434C72.088,57.975,72.649,57.82,73.241,57.82 M73,58.326
		c-0.275,0-0.552,0.082-0.83,0.246c-0.278,0.164-0.503,0.451-0.674,0.861c-0.171,0.41-0.257,0.938-0.257,1.582
		c0,1.039,0.207,1.936,0.621,2.688c0.413,0.754,0.956,1.131,1.632,1.131c0.504,0,0.919-0.207,1.247-0.623s0.491-1.131,0.491-2.143
		c0-1.268-0.273-2.266-0.818-2.992C74.042,58.576,73.572,58.326,73,58.326"/>
	<path d="M79.883,58.592v4.691c0,0.666,0.072,1.086,0.218,1.264c0.192,0.229,0.449,0.342,0.771,0.342h0.647v0.281h-4.263v-0.281
		h0.319c0.208,0,0.398-0.051,0.569-0.154c0.171-0.105,0.29-0.246,0.354-0.422c0.066-0.176,0.097-0.52,0.097-1.029v-4.691h-1.386
		v-0.561h1.386v-0.469c0-0.711,0.115-1.314,0.344-1.807c0.229-0.496,0.578-0.895,1.048-1.199c0.469-0.303,1-0.455,1.586-0.455
		c0.545,0,1.047,0.178,1.504,0.529c0.301,0.236,0.452,0.498,0.452,0.789c0,0.154-0.068,0.303-0.203,0.439
		c-0.136,0.139-0.281,0.207-0.437,0.207c-0.12,0-0.246-0.043-0.378-0.129s-0.295-0.271-0.486-0.553
		c-0.193-0.283-0.369-0.475-0.531-0.574c-0.161-0.098-0.34-0.146-0.538-0.146c-0.239,0-0.442,0.064-0.608,0.189
		c-0.167,0.127-0.286,0.326-0.358,0.592c-0.073,0.27-0.109,0.959-0.109,2.07v0.516h1.839v0.561H79.883z"/>
	<path d="M87.904,59.504h4.91v-3.025c0-0.539-0.034-0.895-0.101-1.066c-0.052-0.131-0.162-0.242-0.327-0.336
		c-0.224-0.125-0.46-0.188-0.71-0.188h-0.373v-0.287h4.52v0.287h-0.374c-0.25,0-0.485,0.061-0.71,0.18
		c-0.166,0.084-0.279,0.209-0.338,0.377c-0.06,0.17-0.09,0.514-0.09,1.033v6.82c0,0.535,0.035,0.889,0.102,1.061
		c0.051,0.129,0.158,0.242,0.32,0.334c0.228,0.125,0.467,0.188,0.717,0.188h0.374v0.289h-4.52v-0.289h0.373
		c0.431,0,0.747-0.127,0.944-0.383c0.129-0.166,0.195-0.564,0.195-1.199V60.08h-4.91v3.219c0,0.535,0.034,0.889,0.1,1.061
		c0.052,0.129,0.162,0.242,0.328,0.334c0.223,0.125,0.459,0.188,0.708,0.188h0.383v0.289h-4.529v-0.289h0.374
		c0.437,0,0.754-0.127,0.952-0.383c0.125-0.166,0.187-0.564,0.187-1.199v-6.82c0-0.539-0.035-0.895-0.102-1.066
		c-0.051-0.131-0.158-0.242-0.32-0.336c-0.229-0.125-0.467-0.188-0.717-0.188h-0.374v-0.287h4.529v0.287h-0.383
		c-0.249,0-0.486,0.061-0.708,0.18c-0.161,0.084-0.273,0.209-0.335,0.377c-0.062,0.17-0.093,0.514-0.093,1.033V59.504z"/>
	<path d="M99.821,57.82c1.08,0,1.948,0.41,2.603,1.23c0.556,0.701,0.833,1.508,0.833,2.416c0,0.639-0.153,1.287-0.459,1.941
		c-0.307,0.654-0.729,1.148-1.267,1.48c-0.538,0.334-1.137,0.5-1.796,0.5c-1.076,0-1.931-0.43-2.565-1.287
		c-0.535-0.723-0.802-1.533-0.802-2.432c0-0.654,0.162-1.307,0.487-1.953c0.324-0.646,0.751-1.123,1.281-1.434
		C98.667,57.975,99.229,57.82,99.821,57.82 M99.58,58.326c-0.275,0-0.552,0.082-0.83,0.246c-0.279,0.164-0.503,0.451-0.674,0.861
		s-0.257,0.938-0.257,1.582c0,1.039,0.207,1.936,0.62,2.688c0.413,0.754,0.957,1.131,1.633,1.131c0.504,0,0.92-0.207,1.247-0.623
		c0.328-0.416,0.491-1.131,0.491-2.143c0-1.268-0.273-2.266-0.818-2.992C100.622,58.576,100.151,58.326,99.58,58.326"/>
	<path d="M106.072,59.332c0.837-1.008,1.634-1.512,2.393-1.512c0.39,0,0.726,0.096,1.005,0.293c0.281,0.193,0.504,0.516,0.671,0.963
		c0.113,0.311,0.171,0.789,0.171,1.434v3.047c0,0.451,0.037,0.758,0.109,0.92c0.057,0.129,0.149,0.23,0.276,0.303
		c0.127,0.074,0.363,0.109,0.705,0.109v0.281h-3.529v-0.281h0.147c0.333,0,0.565-0.051,0.698-0.152s0.225-0.25,0.277-0.447
		c0.02-0.078,0.03-0.322,0.03-0.732v-2.924c0-0.648-0.084-1.119-0.253-1.414c-0.168-0.293-0.453-0.439-0.853-0.439
		c-0.619,0-1.234,0.338-1.848,1.012v3.766c0,0.482,0.029,0.781,0.086,0.896c0.072,0.15,0.172,0.26,0.299,0.332
		c0.127,0.068,0.386,0.104,0.776,0.104v0.281h-3.531v-0.281h0.157c0.363,0,0.608-0.092,0.736-0.277
		c0.127-0.184,0.191-0.535,0.191-1.055v-2.65c0-0.857-0.019-1.379-0.058-1.566c-0.039-0.188-0.099-0.314-0.179-0.383
		c-0.081-0.066-0.189-0.102-0.324-0.102c-0.145,0-0.319,0.039-0.522,0.117l-0.117-0.279l2.151-0.873h0.335V59.332z"/>
	<path d="M113.562,62.566c-0.437-0.213-0.771-0.51-1.006-0.893c-0.233-0.381-0.351-0.805-0.351-1.266
		c0-0.707,0.266-1.314,0.799-1.824c0.532-0.51,1.215-0.764,2.046-0.764c0.681,0,1.271,0.166,1.77,0.498h1.512
		c0.224,0,0.354,0.006,0.39,0.02c0.036,0.014,0.062,0.035,0.078,0.066c0.031,0.047,0.047,0.131,0.047,0.25
		c0,0.135-0.014,0.229-0.039,0.279c-0.016,0.027-0.042,0.047-0.082,0.062c-0.038,0.016-0.17,0.023-0.394,0.023h-0.927
		c0.291,0.375,0.437,0.854,0.437,1.436c0,0.664-0.255,1.234-0.765,1.707c-0.509,0.473-1.192,0.709-2.05,0.709
		c-0.353,0-0.714-0.053-1.083-0.156c-0.229,0.197-0.383,0.369-0.464,0.518s-0.121,0.275-0.121,0.377c0,0.09,0.043,0.176,0.129,0.258
		c0.086,0.084,0.253,0.145,0.503,0.18c0.145,0.021,0.509,0.039,1.091,0.055c1.07,0.027,1.764,0.062,2.081,0.109
		c0.483,0.068,0.869,0.246,1.158,0.537c0.288,0.291,0.432,0.65,0.432,1.076c0,0.588-0.275,1.137-0.826,1.652
		c-0.811,0.76-1.867,1.137-3.172,1.137c-1.003,0-1.85-0.225-2.541-0.676c-0.39-0.262-0.584-0.531-0.584-0.812
		c0-0.123,0.028-0.248,0.085-0.373c0.089-0.193,0.271-0.461,0.546-0.803c0.036-0.047,0.301-0.328,0.794-0.842
		c-0.27-0.162-0.461-0.305-0.573-0.434c-0.111-0.127-0.167-0.271-0.167-0.432c0-0.182,0.074-0.395,0.223-0.641
		C112.686,63.359,113.027,63.014,113.562,62.566 M113.484,65.17c-0.244,0.266-0.429,0.512-0.554,0.74
		c-0.124,0.229-0.187,0.439-0.187,0.631c0,0.248,0.15,0.467,0.452,0.656c0.52,0.32,1.271,0.482,2.252,0.482
		c0.936,0,1.625-0.166,2.069-0.496s0.667-0.682,0.667-1.055c0-0.271-0.133-0.463-0.397-0.578c-0.271-0.115-0.806-0.182-1.605-0.201
		C115.012,65.316,114.114,65.256,113.484,65.17 M114.919,58.193c-0.386,0-0.707,0.154-0.967,0.461
		c-0.261,0.307-0.39,0.777-0.39,1.41c0,0.82,0.176,1.457,0.53,1.908c0.27,0.344,0.612,0.516,1.028,0.516
		c0.395,0,0.72-0.148,0.974-0.443c0.255-0.297,0.382-0.762,0.382-1.396c0-0.826-0.179-1.473-0.537-1.939
		C115.675,58.365,115.334,58.193,114.919,58.193"/>
	<path d="M125.979,59.309l3.897,3.873c0.64,0.641,1.185,1.074,1.637,1.307c0.452,0.23,0.904,0.361,1.356,0.393v0.289h-5.027v-0.289
		c0.302,0,0.519-0.051,0.651-0.152c0.132-0.102,0.198-0.215,0.198-0.338c0-0.125-0.025-0.236-0.074-0.336
		c-0.05-0.098-0.212-0.283-0.487-0.553l-3.647-3.609v3.406c0,0.535,0.034,0.889,0.102,1.061c0.052,0.129,0.161,0.242,0.327,0.334
		c0.224,0.125,0.46,0.188,0.709,0.188h0.358v0.289h-4.505v-0.289h0.375c0.436,0,0.753-0.127,0.95-0.383
		c0.125-0.166,0.188-0.564,0.188-1.199v-6.828c0-0.535-0.034-0.891-0.102-1.066c-0.052-0.125-0.158-0.234-0.319-0.328
		c-0.229-0.125-0.468-0.188-0.717-0.188h-0.375v-0.287h4.505v0.287h-0.358c-0.243,0-0.479,0.061-0.709,0.18
		c-0.161,0.084-0.273,0.209-0.335,0.375c-0.062,0.166-0.094,0.508-0.094,1.027v3.236c0.104-0.1,0.46-0.43,1.068-0.99
		c1.543-1.414,2.476-2.357,2.798-2.83c0.14-0.207,0.21-0.389,0.21-0.545c0-0.121-0.055-0.225-0.163-0.316
		c-0.109-0.09-0.294-0.137-0.554-0.137h-0.241v-0.287h3.881v0.287c-0.229,0.006-0.437,0.037-0.623,0.094
		c-0.188,0.059-0.416,0.168-0.687,0.332c-0.27,0.164-0.604,0.428-0.997,0.791c-0.114,0.104-0.642,0.635-1.582,1.598L125.979,59.309z
		"/>
	<path d="M135.77,57.82c1.081,0,1.949,0.41,2.604,1.23c0.556,0.701,0.834,1.508,0.834,2.416c0,0.639-0.153,1.287-0.46,1.941
		s-0.729,1.148-1.267,1.48c-0.537,0.334-1.137,0.5-1.797,0.5c-1.075,0-1.931-0.43-2.563-1.287c-0.535-0.723-0.803-1.533-0.803-2.432
		c0-0.654,0.162-1.307,0.487-1.953c0.324-0.646,0.752-1.123,1.281-1.434C134.616,57.975,135.178,57.82,135.77,57.82 M135.528,58.326
		c-0.275,0-0.552,0.082-0.83,0.246s-0.503,0.451-0.675,0.861c-0.171,0.41-0.257,0.938-0.257,1.582c0,1.039,0.207,1.936,0.62,2.688
		c0.413,0.754,0.957,1.131,1.633,1.131c0.504,0,0.919-0.207,1.247-0.623c0.327-0.416,0.491-1.131,0.491-2.143
		c0-1.268-0.272-2.266-0.819-2.992C136.57,58.576,136.1,58.326,135.528,58.326"/>
	<path d="M142.021,59.332c0.836-1.008,1.634-1.512,2.393-1.512c0.39,0,0.725,0.096,1.005,0.293c0.281,0.193,0.505,0.516,0.671,0.963
		c0.114,0.311,0.171,0.789,0.171,1.434v3.047c0,0.451,0.037,0.758,0.109,0.92c0.057,0.129,0.149,0.23,0.277,0.303
		c0.127,0.074,0.362,0.109,0.705,0.109v0.281h-3.531v-0.281h0.148c0.332,0,0.565-0.051,0.697-0.152
		c0.133-0.102,0.225-0.25,0.277-0.447c0.021-0.078,0.03-0.322,0.03-0.732v-2.924c0-0.648-0.084-1.119-0.253-1.414
		c-0.169-0.293-0.453-0.439-0.854-0.439c-0.618,0-1.234,0.338-1.847,1.012v3.766c0,0.482,0.028,0.781,0.085,0.896
		c0.073,0.15,0.174,0.26,0.301,0.332c0.127,0.068,0.386,0.104,0.776,0.104v0.281h-3.532v-0.281h0.156
		c0.363,0,0.609-0.092,0.736-0.277c0.128-0.184,0.191-0.535,0.191-1.055v-2.65c0-0.857-0.02-1.379-0.059-1.566
		s-0.099-0.314-0.18-0.383c-0.08-0.066-0.188-0.102-0.323-0.102c-0.146,0-0.319,0.039-0.522,0.117l-0.116-0.279l2.15-0.873h0.336
		V59.332z"/>
	<path d="M149.512,62.566c-0.437-0.213-0.771-0.51-1.006-0.893c-0.233-0.381-0.351-0.805-0.351-1.266
		c0-0.707,0.267-1.314,0.799-1.824s1.215-0.764,2.046-0.764c0.681,0,1.271,0.166,1.77,0.498h1.512c0.224,0,0.354,0.006,0.391,0.02
		c0.036,0.014,0.062,0.035,0.077,0.066c0.031,0.047,0.047,0.131,0.047,0.25c0,0.135-0.013,0.229-0.039,0.279
		c-0.016,0.027-0.042,0.047-0.082,0.062c-0.039,0.016-0.17,0.023-0.394,0.023h-0.927c0.291,0.375,0.437,0.854,0.437,1.436
		c0,0.664-0.255,1.234-0.765,1.707s-1.192,0.709-2.05,0.709c-0.353,0-0.714-0.053-1.083-0.156c-0.229,0.197-0.384,0.369-0.464,0.518
		c-0.081,0.148-0.121,0.275-0.121,0.377c0,0.09,0.044,0.176,0.129,0.258c0.086,0.084,0.254,0.145,0.503,0.18
		c0.146,0.021,0.509,0.039,1.091,0.055c1.07,0.027,1.765,0.062,2.081,0.109c0.483,0.068,0.869,0.246,1.157,0.537
		c0.289,0.291,0.433,0.65,0.433,1.076c0,0.588-0.275,1.137-0.826,1.652c-0.811,0.76-1.867,1.137-3.172,1.137
		c-1.003,0-1.85-0.225-2.54-0.676c-0.39-0.262-0.585-0.531-0.585-0.812c0-0.123,0.028-0.248,0.085-0.373
		c0.089-0.193,0.271-0.461,0.546-0.803c0.036-0.047,0.302-0.328,0.796-0.842c-0.271-0.162-0.462-0.305-0.573-0.434
		c-0.112-0.127-0.168-0.271-0.168-0.432c0-0.182,0.074-0.395,0.223-0.641C148.635,63.359,148.977,63.014,149.512,62.566
		 M149.435,65.17c-0.245,0.266-0.429,0.512-0.555,0.74c-0.124,0.229-0.187,0.439-0.187,0.631c0,0.248,0.15,0.467,0.451,0.656
		c0.521,0.32,1.271,0.482,2.253,0.482c0.936,0,1.626-0.166,2.07-0.496s0.666-0.682,0.666-1.055c0-0.271-0.133-0.463-0.397-0.578
		c-0.271-0.115-0.806-0.182-1.605-0.201C150.961,65.316,150.062,65.256,149.435,65.17 M150.868,58.193
		c-0.385,0-0.707,0.154-0.967,0.461s-0.39,0.777-0.39,1.41c0,0.82,0.177,1.457,0.53,1.908c0.27,0.344,0.613,0.516,1.028,0.516
		c0.396,0,0.72-0.148,0.975-0.443c0.255-0.297,0.382-0.762,0.382-1.396c0-0.826-0.18-1.473-0.538-1.939
		C151.624,58.365,151.283,58.193,150.868,58.193"/>
	<path d="M81.874,27.684c0.017,0.102-0.017,0.221-0.221,0.307c-0.358,0.17-0.563,0.255-0.971,0.358
		c-0.12,0.017-0.222-0.068-0.222-0.137V26.9h-5.093v0.903c0,0.102-0.085,0.222-0.408,0.34l-0.785,0.29
		c-0.135,0.034-0.272-0.085-0.272-0.222l0.068-1.941v-5.162l-0.17,0.137c-1.209,0.971-2.503,1.856-3.918,2.402l-0.153-0.221
		c2.079-1.669,4.106-3.526,5.264-5.86h-3.424c-0.375,0-0.767,0.051-1.227,0.153l-0.391-0.681h7.206v-1.704l-0.766,0.085l-2.42,0.153
		l-3.015,0.085l-0.051-0.307l2.811-0.443c2.793-0.443,5.485-1.158,8.074-2.095c0.357,0.511,0.801,1.125,1.159,1.703
		c0.034,0.103,0.034,0.256-0.102,0.29c-0.341,0-0.597-0.205-0.92-0.221l-2.623,0.46l-0.784,0.102v1.891h4.106l0.732-0.971
		c0.068-0.069,0.239-0.085,0.341-0.018c0.544,0.392,1.004,0.767,1.516,1.193c0.051,0.068,0.103,0.221,0,0.289l-0.119,0.034h-5.451
		l0.17,0.221c1.227,1.602,3.049,2.334,4.82,2.947l1.261,0.307l-0.034,0.272c-0.75,0.069-1.534,0.307-1.942,0.971
		c-1.977-0.937-4.123-2.589-4.94-4.719h-0.46v1.482l0.034,1.431c0,0.102-0.034,0.221-0.153,0.29c-0.341,0.17-0.715,0.29-1.107,0.34
		c-0.136,0.018-0.188-0.084-0.205-0.135l0.068-1.892v-1.516H76.78c-0.647,1.108-1.482,2.232-2.418,3.186l1.277,0.511h4.531
		l0.511-0.562c0.051-0.084,0.255-0.084,0.34,0l1.124,0.853c0.069,0.085,0.121,0.188,0.035,0.306
		c-0.137,0.153-0.29,0.256-0.342,0.443L81.874,27.684z M80.459,21.79h-5.093v1.857h5.093V21.79z M80.459,24.192h-5.093v2.181h5.093
		V24.192z"/>
	<path d="M89.604,19.899c-0.103,0.119-0.255,0.187-0.409,0.136l-0.204-0.17c-0.545-0.971-1.176-1.925-2.045-2.708l0.137-0.307
		c1.039,0.358,2.266,0.647,2.896,1.687C90.166,19.014,89.945,19.542,89.604,19.899 M102.84,22.608c-0.205,0-0.341,0-0.63,0.084
		c-0.409,0.103-0.784,0.358-1.09,0.715c-0.665-0.34-1.277-0.902-1.839-1.447c-0.085-0.017-0.085,0.103-0.102,0.171v0.766
		l0.051,1.005c-0.017,0.119-0.153,0.204-0.34,0.272c-0.273,0.119-0.8,0.323-0.92,0.306c-0.068-0.017-0.136-0.068-0.153-0.136v-0.442
		h-2.981c0,1.005-0.018,1.737,0.068,2.146c0.204,0.357,0.664,0.357,1.073,0.375c1.021,0.034,2.078,0.034,3.1-0.018
		c0.477-0.068,0.715-0.409,0.869-0.987c0.153-0.597,0.307-1.193,0.426-1.806l0.306,0.017c0.018,0.682,0.052,1.397,0.222,2.061
		c0.153,0.341,0.511,0.614,0.818,0.801c-0.801,1.209-2.164,1.311-3.543,1.329c-1.141,0-2.3,0.051-3.39-0.103
		c-0.427-0.068-0.835-0.204-1.108-0.579l-0.085-0.205l-0.068-0.323c-0.051-1.517-0.016-2.999-0.034-4.565
		c-0.988,0.852-1.941,1.652-3.032,2.249c-0.085-0.017-0.169-0.137-0.255-0.137c-0.035,1.005,0.204,1.942,0.323,2.913
		c0,0.239,0.052,0.494-0.136,0.682c-0.29,0.324-0.766,0.119-1.09-0.017c-0.477-0.272-0.732-0.818-0.681-1.363
		c0.153-0.715,0.306-1.55,0.221-2.35c-0.307-0.58-0.971-0.768-1.534-0.937l0.018-0.358c0.596,0.017,1.346,0.137,1.789-0.341
		l0.698-1.362l1.278-2.708l0.714-1.636l0.341,0.12c-0.205,0.647-0.426,1.312-0.648,1.925l2.624,0.017
		c0.034-0.783-0.017-1.533,0-2.282h-1.022c-0.29,0-0.683,0.085-0.989,0.153c-0.084-0.238-0.238-0.442-0.323-0.681h2.334l0.017-1.926
		l-0.051-1.209c0.579,0.136,1.175,0.307,1.687,0.494c0.119,0.069,0.17,0.188,0.102,0.306c-0.221,0.222-0.408,0.427-0.408,0.529
		v1.806h2.01v-1.754l-0.034-1.415c0.665,0.17,1.192,0.324,1.805,0.528c0.103,0.034,0.17,0.188,0.068,0.306
		c-0.153,0.154-0.528,0.375-0.528,0.512v1.823h1.09l0.715-1.039c0.068-0.103,0.256-0.12,0.323-0.035
		c0.478,0.409,0.971,0.886,1.38,1.346c0.068,0.103,0.034,0.256-0.103,0.256H98.82v2.282l1.277-0.017l0.732-0.988
		c0.085-0.068,0.205-0.085,0.29-0.017c0.495,0.46,0.784,0.681,1.329,1.278c0.085,0.119-0.017,0.238-0.103,0.272h-4.037
		c1.09,1.602,2.827,2.589,4.599,3.084L102.84,22.608z M91.052,16.407c-0.085,0.069-0.222,0.052-0.307,0.018
		c-0.307-0.307-0.511-0.801-0.733-1.143c-0.511-0.766-0.987-1.328-1.635-1.993l0.137-0.272c0.97,0.341,1.925,0.699,2.743,1.38
		c0.255,0.255,0.477,0.511,0.409,0.903C91.58,15.777,91.393,16.186,91.052,16.407 M91.376,19.269l-0.853,2.658
		c-0.153,0.699-0.357,1.346-0.323,2.13c1.584-1.364,2.896-2.964,3.713-4.788H91.376z M97.696,19.269h-2.215
		c-0.272,0.495-0.596,0.989-0.902,1.465l0.426,0.358h2.572l0.409-0.425c0.136-0.103,0.256-0.052,0.375,0.102
		C98.121,20.274,97.849,19.814,97.696,19.269 M97.815,21.62h-2.964v1.788h2.964V21.62z M97.458,16.458h-1.977v2.282h1.977V16.458z"
		/>
	<path d="M120.654,27.616c-1.004-0.409-1.601-0.12-2.146,0.596c-1.278-1.09-1.619-1.737-2.521-3.151
		c-1.124,1.244-2.861,2.487-4.582,3.168l-0.222-0.273c1.551-0.937,3.152-2.3,4.208-3.866c-0.63-1.415-1.124-2.964-1.294-4.566
		c-0.647,1.022-1.022,1.431-1.67,2.165l-0.289-0.188c0.579-0.955,1.124-1.839,1.481-2.999h-2.623
		c-0.357,0.512-0.801,0.989-1.209,1.482h0.852l0.681-0.613c0.153-0.068,0.494,0.273,0.715,0.459l0.442,0.494
		c0.12,0.307-0.408,0.273-0.612,0.426c-0.58,0.409-1.142,0.938-1.755,1.295c0.222,0.068,0.443,0.153,0.647,0.272
		c0.204,0.29-0.443,0.358-0.665,0.562V23l2.759-0.682l0.153,0.256c-0.936,0.46-1.941,0.852-2.913,1.227v3.015
		c0,0.681-1.125,1.159-1.737,1.465c-0.153-1.04-0.597-1.346-1.892-1.669l0.068-0.324c0.681,0.103,1.431,0.255,2.112,0.187
		c0.153-0.017,0.188-0.136,0.188-0.238v-1.909c-0.63,0.222-1.09,0.357-1.687,0.613c-0.358,0.153-0.545,0.341-0.834,0.614
		c-0.085,0.119-0.188,0.136-0.255,0c-0.238-0.494-0.495-1.023-0.699-1.533c-0.034-0.136,0.222-0.052,0.357-0.085l3.118-0.648v-0.698
		l-0.051-0.937c0.307,0.085,0.597,0.17,0.903,0.256c0.324-0.443,0.58-0.955,0.834-1.431h-1.226
		c-1.261,1.345-2.878,2.197-4.429,2.879l-0.205-0.238c1.125-0.784,2.249-1.602,3.22-2.624c-0.528,0-1.04,0.069-1.55,0.137
		l-0.306-0.648h2.334c0.459-0.442,0.817-1.004,1.191-1.482h-2.486c-0.443,0-1.073,0.051-1.806,0.153l-0.323-0.646h3.526v-2.164
		h-1.277c-0.409,0-0.784,0.102-1.176,0.171l-0.34-0.665h2.776c0.017-0.835-0.034-1.755-0.068-2.555
		c0.783,0.17,1.226,0.324,1.976,0.681c0.307,0.256-0.323,0.307-0.494,0.511c-0.102,0.085-0.102,0.17-0.119,0.256v1.09h0.459
		c0.153-0.187,0.291-0.442,0.545-0.596c0.188,0,0.426,0.221,0.665,0.357l0.34-0.784c0.58,0.239,1.143,0.562,1.653,0.97
		c0.255,0.307-0.409,0.239-0.613,0.409l-0.204,0.222c-0.342,0.732-0.767,1.396-1.228,2.095h0.324
		c0.239-0.255,0.494-0.545,0.732-0.801c0.067-0.068,0.171-0.051,0.272,0.034c0.341,0.255,0.682,0.544,1.056,0.869
		c0.545-1.636,0.853-3.339,0.869-5.196c0.715,0.188,1.396,0.409,2.044,0.715c0.188,0.239-0.221,0.375-0.392,0.46
		c-0.511,0.255-0.392,0.732-0.546,1.107c-0.17,0.665-0.34,1.38-0.596,2.026h2.931l0.664-0.834c0.067-0.051,0.17-0.068,0.238-0.034
		c0.442,0.307,0.835,0.715,1.158,1.142c0.103,0.119,0,0.221-0.152,0.221h-1.415c-0.102,2.386-0.596,4.617-1.839,6.525
		c1.142,1.379,2.572,2.469,4.139,3.083L120.654,27.616z M109.736,15.845l-0.018,2.164h0.154c0.425-0.699,0.868-1.415,1.192-2.164
		H109.736z M114.948,17.719l-0.512,1.09c0.239,1.551,0.784,3.049,1.534,4.361c0.698-1.107,1.141-2.759,1.209-5.451H114.948z"/>
	<path d="M127.499,12.574c0.853,0.12,1.687,0.239,2.42,0.631c0.17,0.102,0.392,0.375,0.392,0.63
		c-0.017,0.375-0.29,0.784-0.562,0.903l4.463,0.034l0.886-1.074c0.052-0.103,0.222-0.084,0.324-0.068
		c0.494,0.46,0.987,0.852,1.431,1.38c0.068,0.103,0.034,0.256-0.085,0.256h-7.479l0.767,0.409c0.068,0.068,0.052,0.221-0.051,0.29
		c-0.188,0.136-0.597,0.085-0.92,0.187c-1.176,0.665-2.368,1.107-3.492,1.584l2.811,0.035l4.071-0.154l0.068-0.034
		c-0.647-0.511-1.346-0.971-2.062-1.329l0.103-0.272c1.329,0.29,2.606,0.562,3.56,1.09c0.392,0.222,0.801,0.613,0.887,0.988
		c0.085,0.426,0.153,0.63,0.017,1.056c-0.051,0.153-0.153,0.273-0.238,0.307c-0.512,0.154-0.698-0.46-1.09-0.817l-0.546-0.477
		l-3.492,0.374l-4.514,0.392c-0.357,0.034-0.699,0.153-1.039,0.221l-0.085-0.034c-0.154-0.238-0.528-0.869-0.545-1.073
		c-0.034-0.307,0.595-0.171,0.885-0.307c0.784-0.273,1.227-0.682,2.045-1.277c0.477-0.358,0.971-0.767,1.379-1.159h-4.514
		c-0.426,0.068-0.869,0.085-1.277,0.221l-0.41-0.715h7.274l-0.17-0.358c-0.357-0.562-0.801-1.158-1.363-1.566L127.499,12.574z
		 M129.611,26.288c0.716,0.051,1.448,0.205,2.198,0.238c0.153,0,0.341-0.119,0.341-0.323l0.017-1.976h-5.894v2.129
		c0,0.426,0.034,0.834,0.051,1.278c-0.017,0.102-0.137,0.153-0.204,0.204c-0.375,0.153-0.716,0.358-1.125,0.46
		c-0.118-0.017-0.153-0.119-0.204-0.187c0.051-0.614,0.068-1.363,0.068-2.027v-5.928c0-0.409-0.051-0.58-0.051-0.954
		c0-0.12,0.238-0.068,0.426,0c0.408,0.17,0.681,0.29,1.294,0.528h5.451l0.562-0.579c0.119-0.103,0.272-0.085,0.374-0.017
		l1.176,0.715c0.085,0.068,0.17,0.204,0.051,0.307c-0.221,0.187-0.374,0.272-0.562,0.511v4.173v2.113
		c0,0.732-1.21,1.124-1.942,1.345c-0.188-0.596-0.562-1.124-1.175-1.38c-0.29-0.119-0.597-0.239-0.92-0.323L129.611,26.288z
		 M126.256,23.732h5.894v-1.516h-5.894V23.732z M126.273,21.722h5.877v-1.499h-5.877V21.722z"/>
	<path d="M144.395,17.975c0.119-1.703,0.068-3.629-0.051-5.383c0.767,0.135,1.533,0.289,2.282,0.477
		c0.085,0.051,0.153,0.17,0.085,0.272c-0.17,0.204-0.527,0.222-0.612,0.511l-0.052,2.708l-0.102,1.415h4.411l0.75-1.192
		c0.034-0.085,0.238-0.085,0.357,0c0.579,0.426,1.159,0.902,1.721,1.414c0.034,0.069,0.034,0.17,0,0.238l-0.085,0.052h-6.286
		c0.188,1.567,0.818,3.475,2.044,4.854c1.397,1.55,3.05,2.691,4.804,3.475l-0.051,0.255l-0.8-0.034
		c-0.75-0.034-1.329,0.375-1.874,0.852c-2.947-2.47-4.583-5.707-4.753-9.403l-0.222-0.017c-0.238,2.879-1.039,5.707-3.509,7.615
		c-1.21,0.937-2.453,1.72-3.85,2.18l-0.512,0.17l-0.153-0.29c2.402-1.226,4.736-3.44,5.707-6.012c0.46-1.227,0.63-2.385,0.732-3.646
		h-4.549c-0.442,0-0.902,0.067-1.481,0.169l-0.46-0.681H144.395z"/>
	<path d="M170.097,20.751c-0.255,0.136-0.579,0.034-0.698,0.153c-0.63,0.409-1.192,0.801-1.755,1.277l-0.29-0.136
		c0.273-0.443,0.528-0.971,0.716-1.465h-11.412c-0.018,0.699-0.153,1.415-0.869,1.704c-0.239,0.136-0.597,0.12-0.835-0.052
		c-0.153-0.153-0.188-0.375-0.119-0.579c0.103-0.221,0.357-0.323,0.511-0.494c0.512-0.562,0.903-1.176,0.92-1.958l0.29-0.017
		c0.034,0.272,0.068,0.579,0.068,0.852h0.664l-0.188-3.015c-0.068-1.158-0.188-2.044-0.307-3.407
		c0.562,0.204,0.938,0.391,1.431,0.562c0.647-0.392,1.312-0.818,1.856-1.449l0.988,1.125c0.018,0.086-0.034,0.188-0.119,0.222
		c-0.562-0.102-1.021,0.103-1.874,0.409l-0.817,0.29l0.051,1.091l0.869-0.018l0.562-0.647c0.034-0.068,0.204-0.12,0.323,0
		c0.408,0.324,0.664,0.63,1.022,1.022c0.392-0.41,0.852-0.92,1.209-1.363c-0.307-0.375-0.732-0.647-1.124-0.886l0.17-0.221
		c0.46,0.17,0.902,0.375,1.346,0.562c0.324-0.494,0.631-0.954,0.92-1.465c0.409,0.221,0.801,0.494,1.176,0.817
		c0.034,0.034,0.051,0.103,0.017,0.153c-0.136,0.085-0.323,0.085-0.46,0.153l-0.834,0.801c0.374,0.323,0.902,0.784,0.698,1.346
		c-0.068,0.204-0.188,0.425-0.426,0.442l0.817,0.597c0.034,0.051,0.103,0.119,0.051,0.188c-0.136,0.136-0.357,0.052-0.528,0.119
		c-0.221,0.188-0.459,0.341-0.681,0.527c0.442,0.274,0.937,0.511,1.073,0.971l0.034,0.085c0.051,0.341-0.12,0.665-0.409,0.869
		c-0.137,0.067-0.272-0.034-0.375-0.103c-0.323-0.443-0.715-0.852-1.09-1.227l-0.137,0.086c-0.698,0.442-1.447,0.936-2.215,1.278
		l-0.221-0.239c0.715-0.477,1.363-1.022,1.976-1.635c-0.374-0.306-0.664-0.545-1.175-0.834L161,17.021
		c0.597,0.153,1.039,0.357,1.551,0.529c0.375-0.341,0.613-0.802,0.937-1.193c-0.204-0.324-0.426-0.613-0.682-0.937
		c-0.357,0.306-1.311,1.022-2.01,1.431l-0.238-0.17l0.272-0.29h-2.47l0.102,1.652h0.818l0.613-0.8c0.051-0.068,0.237-0.034,0.289,0
		c0.409,0.34,0.664,0.579,1.057,1.004c0.068,0.069,0.119,0.188,0.068,0.273l-0.153,0.068h-2.641l0.051,1.448h7.921l0.119-1.362
		h-0.852c-0.171,0-0.511,0.067-0.767,0.119l-0.357-0.665h2.01l0.153-1.652l-1.022-0.017c-0.255,0-0.459,0.068-0.749,0.12
		l-0.511-0.665h2.3l0.119-1.278h-1.193c-0.272,0-0.63,0.068-0.885,0.119l-0.409-0.664l2.3-0.018l0.562-0.562
		c0.034-0.051,0.205-0.034,0.256,0l1.21,0.749c0.051,0.085,0.136,0.188,0.051,0.291c-0.17,0.221-0.528,0.221-0.613,0.494
		l-0.46,4.991l0.357,0.017l0.546-0.545c0.051-0.052,0.204-0.086,0.289-0.017c0.46,0.375,0.783,0.614,1.192,1.055
		C170.165,20.615,170.148,20.699,170.097,20.751 M170.029,24.516h-6.559v2.521c0,0.818-1.244,1.175-1.976,1.397
		c-0.068-0.562-0.409-1.124-0.955-1.346c-0.323-0.17-0.681-0.307-1.038-0.442l0.051-0.358c0.715,0.153,1.414,0.324,2.181,0.34
		c0.153,0,0.289-0.102,0.323-0.255v-1.856h-5.11c-0.392,0-0.954,0.119-1.312,0.17l-0.341-0.715h6.745v-0.272l-0.067-1.022
		c0.357,0.119,0.715,0.239,1.056,0.375h0.086c0.34-0.307,0.612-0.613,0.937-0.953h-4.463c-0.29,0-0.58,0.051-1.006,0.153
		l-0.408-0.715l6.251,0.017l0.597-0.425c0.085-0.086,0.323-0.103,0.442,0c0.597,0.391,0.921,0.646,1.262,0.902
		c0.067,0.051,0.085,0.153,0.051,0.239c-0.068,0.137-0.512,0.051-0.767,0.119c-0.817,0.222-1.602,0.562-2.368,0.903
		c0.63,0.29-0.188,0.375-0.188,0.597v0.084h4.378l0.682-0.767c0.052-0.051,0.153-0.034,0.222-0.017
		c0.493,0.375,0.817,0.579,1.362,1.022C170.199,24.312,170.148,24.516,170.029,24.516"/>
	<rect x="69.761" y="32.672" fill="#F26522" width="154.239" height="1.226"/>
</g>
</svg>
