<svg width="319" height="63" viewBox="0 0 319 63" fill="none" xmlns="http://www.w3.org/2000/svg">
<path d="M37.2595 49.9361H35.9619V48.6547H37.2595V45.3183H38.5415V48.6547H39.6803V49.9361H38.5415V59.9154H37.2595V49.9361ZM47.2759 56.0089H39.364V54.7913H47.2759V53.8425H48.5572V54.7913H50.6774V56.0089H48.5572V58.4609C48.5572 58.7765 48.4622 59.9785 46.864 59.9785C46.3577 59.9785 45.6933 59.8835 44.8857 59.6629L44.9176 58.3347L45.9933 58.6353L46.6896 58.7303C46.769 58.7453 47.2752 58.7147 47.2752 58.1297L47.2759 56.0089ZM49.396 47.5166H45.5514V48.3704H49.5861C49.8711 48.3704 50.0136 48.5135 50.0136 48.766V54.1269H48.7791V53.0519H45.5514V54.1588H44.3325V53.0519H41.2948V54.1269H40.0766V48.766C40.0766 48.5129 40.2029 48.3704 40.4723 48.3704H44.3332V47.5166H39.9185V46.3628H44.3332V45.2559H45.5521V46.3628H48.8117L48.5423 45.8572L49.6342 45.3515C50.0143 45.999 50.4093 46.7897 50.7893 47.7072L49.6655 48.1185L49.396 47.5166ZM44.3325 50.158V49.4617H41.453C41.358 49.4617 41.2948 49.5254 41.2948 49.6361V50.1586L44.3325 50.158ZM44.3325 51.9606V51.2656H41.2948V51.9606H44.3325ZM43.1618 59.2197C42.6399 58.2872 42.1812 57.6065 41.8174 57.1952L42.9093 56.5315C43.3994 57.2265 43.8744 57.939 44.2701 58.6347L43.1618 59.2197ZM45.5514 49.4617V50.158H48.7791V49.6354C48.7791 49.5248 48.716 49.461 48.6054 49.461H45.5514V49.4617ZM45.5514 51.2649V51.9599H48.7791V51.2649H45.5514Z" fill="white"/>
<path d="M57.8447 58.7297C60.1705 57.971 62.2594 56.864 64.0314 55.4721C62.4019 53.8426 61.215 51.5018 60.5662 48.5136H57.9235V47.1054H64.4264V45.3828H65.819V47.1054H72.227V48.5136H69.8381C69.1099 51.3756 67.8286 53.7164 66.041 55.5196C67.8923 56.9747 70.0437 58.0504 72.4489 58.7304L71.5314 59.9642C68.9999 59.1261 66.816 57.9404 65.0284 56.4222L63.4458 57.576C62.4013 58.3035 60.8193 59.1104 58.6992 59.9642L57.8447 58.7297ZM61.9744 48.5136C62.2594 49.8099 62.6076 50.9012 63.0664 51.8031C63.5883 52.8945 64.2533 53.8589 65.0596 54.6495L65.4078 54.2858C66.8635 52.7676 67.8761 50.8225 68.4299 48.5136H61.9744Z" fill="white"/>
<path d="M82.623 47.0578H80.3284V45.7134H90.6767C90.9135 45.7134 91.2461 46.0459 91.2461 46.2991C91.2461 46.3459 91.2461 46.3778 91.2305 46.4253L90.281 49.8561H92.1799L93.1925 50.5205L92.7968 52.0699C92.1324 53.8419 91.0561 55.4076 89.5535 56.7514C91.0567 57.6853 92.5912 58.3334 94.11 58.6965L93.2081 59.9616C91.5623 59.456 89.9491 58.6647 88.3984 57.6208C86.9264 58.5696 85.1707 59.344 83.1611 59.9453L82.4804 58.6328C84.395 58.1584 86.0407 57.5258 87.3539 56.7501C85.8507 55.2638 84.8219 53.3812 84.2687 51.1992H83.7624C83.3512 54.8207 82.3386 57.684 80.7716 59.7553L79.4902 58.964C81.4998 56.7026 82.5598 52.733 82.623 47.1184V47.0578ZM84.0312 47.0578C84.0312 47.5322 84.0312 48.386 83.9043 49.8567H88.8728L89.6166 47.1685C89.6166 47.0578 89.5691 47.0259 89.4904 47.0578H84.0312ZM85.6288 51.2018C86.167 53.1157 87.0051 54.6176 88.1446 55.6621L88.4927 55.9933C90.2654 54.5076 91.3092 52.9888 91.5623 51.4706V51.4068C91.5623 51.2806 91.4673 51.2018 91.2773 51.2018H85.6288Z" fill="white"/>
<path d="M107.195 55.6777C106.593 54.8864 105.85 54.0333 104.964 53.1001V59.9636H103.635V54.1751L101.721 55.9146L100.851 54.7602C103.271 53.0057 104.933 51.1862 105.787 49.3205C105.803 49.2886 105.803 49.2567 105.803 49.2418C105.803 49.1468 105.723 49.0986 105.582 49.0986H101.387V47.7548H103.681V45.3828H105.026V47.7548H106.815L107.543 48.3392C107.037 49.7474 106.372 50.9812 105.581 52.04C106.483 52.8632 107.369 53.7645 108.224 54.697L107.195 55.6777ZM110.834 58.1291V49.778H108.239V48.4342H110.834V45.4297H112.226V48.4342H115.17V49.778H112.226V58.1291H115.597V59.4729H107.305V58.1291H110.834Z" fill="white"/>
<path d="M137.146 49.0668C135.975 48.83 134.583 48.4499 133.001 47.928V48.7506H127.621V47.9124C126.418 48.3068 125.026 48.6868 123.412 49.0193L122.953 47.738C126.45 47.2792 128.871 46.441 130.137 45.271L131.261 45.7454L131.15 45.8567C133.16 46.8686 135.327 47.5167 137.637 47.7862L137.146 49.0668ZM136.34 53.2726C136.34 53.3839 136.277 53.4477 136.165 53.4477H124.361C124.251 53.4477 124.187 53.3839 124.187 53.2726V49.5569C124.187 49.4456 124.25 49.3987 124.361 49.3987H136.165C136.276 49.3987 136.34 49.4456 136.34 49.5569V53.2726ZM126.482 59.2674V59.8368H125.2V54.444C125.185 54.3178 125.248 54.239 125.406 54.239H135.248C135.422 54.239 135.517 54.3178 135.517 54.4922V59.8374H134.235V59.268L126.482 59.2674ZM127.668 50.6332C127.969 51.0757 128.27 51.6288 128.539 52.2933H129.677V50.5538H125.453C125.405 50.5538 125.389 50.5694 125.405 50.6013V52.2295L125.453 52.2933H127.177L126.576 51.2182L127.668 50.6332ZM126.482 56.2154H134.235V55.5041C134.235 55.3928 134.172 55.329 134.045 55.329H126.656C126.53 55.329 126.466 55.3928 126.482 55.5041V56.2154ZM134.235 57.3067H126.482V58.1611H134.235V57.3067ZM132.21 47.5961L130.248 46.6317C129.9 46.853 129.299 47.2005 128.429 47.5961H132.21ZM134.124 51.3438L133.539 52.2926H135.058L135.121 52.2288V50.6007L135.058 50.5532H130.912V52.2926H131.988C132.478 51.6601 132.858 51.1069 133.08 50.6638L134.124 51.3438Z" fill="white"/>
<path d="M148.412 52.989V59.9637H147.082V53.4478C146.624 54.4759 146.102 55.3772 145.532 56.1835L144.267 55.6935C145.39 54.2859 146.26 52.689 146.846 50.8851H144.503V49.5406H147.082V47.343L144.82 47.4856L144.662 46.1418C147.051 46.0155 148.933 45.7461 150.342 45.383L150.564 46.7112L148.412 47.1693V49.5413H150.643V50.8857H148.412V51.0914C149.329 52.1189 150.2 53.2265 151.022 54.3653L149.963 55.1879L148.412 52.989ZM156.101 56.041L150.168 57.0542L149.835 55.741L156.101 54.6809V45.3823H157.446V54.4441L158.775 54.2072L158.981 55.5354L157.446 55.8204V59.9156H156.101V56.041ZM153.664 53.6209C152.984 52.7514 152.098 51.8183 151.053 50.8539L152.034 49.9682C153.316 51.2489 154.217 52.1977 154.708 52.7996L153.664 53.6209ZM154.519 50.0469C153.744 49.0513 152.81 48.0393 151.718 47.0261L152.715 46.1242C154.092 47.5005 155.041 48.5443 155.579 49.2244L154.519 50.0469Z" fill="white"/>
<path d="M178.379 50.6011V49.9679H176.069V48.861H178.379V48.3554H176.069V47.2634H178.379V46.7571C178.379 46.679 178.332 46.6315 178.221 46.6315H176.133V45.524H179.313C179.502 45.524 179.598 45.619 179.598 45.809V50.6018H179.709L180.816 51.1549C180.769 52.0087 180.579 53.0213 180.199 54.192L178.981 53.8276C179.25 52.8794 179.376 52.2618 179.376 52.0087C179.376 51.8825 179.329 51.8193 179.218 51.8193H167.636C167.557 51.8193 167.51 51.8668 167.51 51.9456V53.9545H166.228V50.823C166.228 50.6799 166.307 50.6018 166.465 50.6018H167.193V45.8253C167.177 45.524 167.288 45.524 167.92 45.524C168.933 45.524 169.883 45.414 170.768 45.2246L171.243 46.3628C170.42 46.5528 169.47 46.6634 168.458 46.6634C168.411 46.6634 168.395 46.7109 168.411 46.774V47.2641H170.642V48.356H168.411V48.9254H170.705V50.0324H168.411V50.6018H174.645L173.632 49.8105C173.078 50.1267 172.414 50.3805 171.702 50.5224L171.243 49.4786C171.717 49.3836 172.16 49.2573 172.587 49.0992L171.923 48.6729L172.46 47.9291L171.749 48.166L171.21 47.1853C171.685 47.0272 172.112 46.8528 172.508 46.6797L171.701 46.2528L172.255 45.3196L173.584 46.0465L174.549 45.2246L175.293 46.0302L174.597 46.6159L175.388 47.0903L174.755 47.9916L175.34 48.7354L174.644 49.2254L175.451 49.8742L174.818 50.6018L178.379 50.6011ZM170.69 58.1128C171.465 58.5872 172.193 58.7934 172.842 58.7934C173.095 58.7934 173.949 58.6666 173.949 57.7809C173.949 57.5277 173.886 57.2427 173.775 56.9108H166.908V55.6301H173.094C172.857 55.282 172.604 54.9495 172.303 54.6488H173.047L175.246 53.6681H169.55V52.4506H176.734L177.698 53.8425L174.408 55.3139L174.613 55.6301H179.977V56.9108H175.198C175.325 57.3533 175.341 57.4327 175.341 57.8277C175.341 59.6791 173.807 60.0735 172.952 60.0735C172.082 60.0735 171.243 59.7884 170.452 59.4253L170.69 58.1128ZM172.636 47.8491L173.679 48.5604L174.644 47.9122L173.648 47.2953L172.636 47.8491Z" fill="white"/>
<path d="M200.103 50.6011V49.9679H197.793V48.861H200.103V48.3554H197.793V47.2634H200.103V46.7571C200.103 46.679 200.056 46.6315 199.945 46.6315H197.856V45.524H201.037C201.226 45.524 201.322 45.619 201.322 45.809V50.6018H201.433L202.54 51.1549C202.493 52.0087 202.303 53.0213 201.923 54.192L200.705 53.8276C200.974 52.8794 201.1 52.2618 201.1 52.0087C201.1 51.8825 201.053 51.8193 200.942 51.8193H189.36C189.28 51.8193 189.233 51.8668 189.233 51.9456V53.9545H187.952V50.823C187.952 50.6799 188.03 50.6018 188.189 50.6018H188.916V45.8253C188.901 45.524 189.011 45.524 189.644 45.524C190.657 45.524 191.606 45.414 192.493 45.2246L192.967 46.3628C192.144 46.5528 191.195 46.6634 190.182 46.6634C190.136 46.6634 190.119 46.7109 190.136 46.774V47.2641H192.366V48.356H190.136V48.9254H192.429V50.0324H190.136V50.6018H196.37L195.357 49.8105C194.803 50.1267 194.138 50.3805 193.426 50.5224L192.967 49.4786C193.441 49.3836 193.885 49.2573 194.312 49.0992L193.648 48.6729L194.186 47.9291L193.473 48.166L192.936 47.1853C193.41 47.0272 193.838 46.8528 194.233 46.6797L193.426 46.2528L193.98 45.3196L195.309 46.0465L196.274 45.2246L197.018 46.0302L196.322 46.6159L197.114 47.0903L196.48 47.9916L197.065 48.7354L196.37 49.2254L197.176 49.8742L196.544 50.6018L200.103 50.6011ZM192.413 58.1128C193.188 58.5872 193.916 58.7934 194.565 58.7934C194.819 58.7934 195.673 58.6666 195.673 57.7809C195.673 57.5277 195.61 57.2427 195.498 56.9108H188.631V55.6301H194.818C194.581 55.282 194.328 54.9495 194.027 54.6488H194.771L196.97 53.6681H191.274V52.4506H198.457L199.422 53.8425L196.132 55.3139L196.337 55.6301H201.701V56.9108H196.922C197.049 57.3533 197.065 57.4327 197.065 57.8277C197.065 59.6791 195.53 60.0735 194.676 60.0735C193.805 60.0735 192.966 59.7884 192.176 59.4253L192.413 58.1128ZM194.36 47.8491L195.403 48.5604L196.369 47.9122L195.372 47.2953L194.36 47.8491Z" fill="white"/>
<path d="M213.046 50.4266C213.014 50.5216 213.014 50.6166 213.014 50.6954C213.014 50.8216 213.046 50.9322 213.109 51.0273C213.742 51.9448 214.391 53.1943 214.391 54.6012C214.391 55.8038 213.758 56.7838 212.366 56.7838C211.923 56.7838 211.464 56.7051 210.99 56.5307V59.8515H209.645V45.9032L209.692 45.7451L209.835 45.7132H213.078L213.964 46.2358L213.046 50.4266ZM212.476 47.3271C212.492 47.2633 212.508 47.2002 212.508 47.1527C212.508 46.9314 212.302 46.9314 212.143 46.9314H211.1L211.021 46.9633L210.989 47.042V55.0606C211.384 55.3287 211.812 55.4719 212.239 55.4719C212.983 55.4719 213.062 54.8231 213.062 54.5075C213.062 53.7474 212.572 52.5455 211.638 50.9329C211.669 50.901 211.669 50.901 211.701 50.8542L212.476 47.3271ZM219.47 53.4474H217.887V54.4118C217.887 54.8706 217.808 55.3606 217.666 55.9144C217.207 57.607 215.972 58.9515 214.042 59.9152L213.203 58.8083C213.789 58.5864 214.295 58.3189 214.723 57.9857C215.909 57.1632 216.558 55.9613 216.59 54.4118V53.4474H214.928V52.1661H223.346V53.4474H220.815V57.5432C220.815 57.8595 221.004 58.2708 221.574 58.3189C222.144 58.3189 222.207 58.3189 222.412 58.1608C222.476 58.097 222.524 57.5113 222.555 56.4363L223.9 56.6582C223.836 58.1126 223.71 58.9515 223.552 59.1252C223.219 59.4734 222.903 59.6627 222.587 59.6627H220.815C220.245 59.6315 219.47 59.0784 219.47 58.3027V53.4474ZM218.109 46.4577V45.3188H219.453V46.4577H222.776L223.884 47.0108C223.868 47.9603 223.678 49.0835 223.267 50.3635L222.049 49.9997C222.444 48.4815 222.444 48.1015 222.444 47.8327C222.444 47.7227 222.38 47.6746 222.285 47.6746H215.656C215.576 47.6746 215.529 47.7227 215.529 47.8015V50.1735H214.247V46.6945C214.247 46.5364 214.326 46.4577 214.484 46.4577H218.109ZM216.099 49.3353H221.621V50.6166H216.099V49.3353Z" fill="white"/>
<path d="M317.814 40.9067H35.6377V41.4814H317.814V40.9067Z" fill="white"/>
<path d="M36.646 36.6429V27.79H41.3509V28.9067H37.9137V31.4941H41.1987V32.6102H37.9137V36.6429H36.646Z" fill="#FEFFFF"/>
<path d="M41.2622 36.6429L45.0418 27.79H46.3732L50.115 36.6429H48.7322L47.8316 34.4108H43.4943L42.5936 36.6429H41.2622ZM47.4255 33.3702L45.6626 28.9822L43.9004 33.3702H47.4255Z" fill="#FEFFFF"/>
<path d="M57.0387 28.019L56.9372 29.249C56.3795 28.919 55.7704 28.7544 55.1105 28.7544C54.096 28.7544 53.276 29.0798 52.65 29.7312C52.0247 30.3819 51.7116 31.2103 51.7116 32.2164C51.7116 33.2394 52.0325 34.0723 52.6754 34.7153C53.3177 35.3576 54.1084 35.6784 55.0467 35.6784C55.8498 35.6784 56.4927 35.5346 56.9743 35.2476L57.0504 36.4775C56.5428 36.689 55.8713 36.7944 55.0337 36.7944C53.6301 36.7944 52.501 36.376 51.6479 35.5391C50.7941 34.7023 50.3672 33.5817 50.3672 32.178C50.3672 30.8257 50.8064 29.7305 51.6856 28.8936C52.5648 28.0561 53.6847 27.6377 55.0467 27.6377C55.8003 27.6383 56.4641 27.7652 57.0387 28.019Z" fill="#FEFFFF"/>
<path d="M65.1431 27.79V32.9778C65.1431 34.2117 64.8451 35.1572 64.2483 35.8112C63.6522 36.4672 62.8043 36.7945 61.7058 36.7945C60.6067 36.7945 59.7588 36.4672 59.1627 35.8112C58.5666 35.1566 58.2686 34.2117 58.2686 32.9778V27.79H59.5369V32.8125C59.5369 34.7238 60.2592 35.6785 61.7058 35.6785C63.1525 35.6785 63.8748 34.7232 63.8748 32.8125V27.79H65.1431Z" fill="#FEFFFF"/>
<path d="M67.083 36.6429V27.79H68.3513V35.5262H72.0548V36.6429H67.083Z" fill="#FEFFFF"/>
<path d="M73.4625 36.6429V28.9067H70.7104V27.79H77.4828V28.9067H74.7308V36.6429H73.4625Z" fill="#FEFFFF"/>
<path d="M81.6676 36.6427V32.9399L78.2056 27.7905H79.6893L82.3274 31.7608L84.9025 27.7905H86.3862L82.9365 32.9399V36.6427H81.6676Z" fill="#FEFFFF"/>
<path d="M90.0884 32.2162C90.0884 30.8718 90.4645 29.7811 91.2168 28.9449C91.9866 28.0735 93.0311 27.6382 94.3495 27.6382C95.6686 27.6382 96.7169 28.0735 97.4946 28.9449C98.2384 29.7811 98.6106 30.8718 98.6106 32.2162C98.6106 33.5861 98.2384 34.6852 97.4946 35.5136C96.7254 36.3674 95.677 36.7943 94.3495 36.7943C93.022 36.7943 91.9736 36.368 91.2044 35.5136C90.46 34.6852 90.0884 33.5861 90.0884 32.2162ZM91.4328 32.2162C91.4328 33.18 91.6652 33.9791 92.1304 34.6136C92.6543 35.3236 93.3942 35.6789 94.3495 35.6789C95.3048 35.6789 96.0447 35.3236 96.5692 34.6136C97.0339 33.9791 97.2668 33.1806 97.2668 32.2162C97.2668 31.2531 97.0261 30.4494 96.5438 29.8065C96.0109 29.105 95.2801 28.7542 94.3495 28.7542C93.4189 28.7542 92.6881 29.105 92.1552 29.8065C91.6736 30.4494 91.4328 31.2525 91.4328 32.2162Z" fill="#FEFFFF"/>
<path d="M100.018 36.6429V27.79H104.723V28.9067H101.286V31.4941H104.571V32.6102H101.286V36.6429H100.018Z" fill="#FEFFFF"/>
<path d="M109.568 36.6429V27.79H110.836V35.5262H114.54V36.6429H109.568Z" fill="#FEFFFF"/>
<path d="M115.605 36.6429V27.79H116.873V36.6429H115.605Z" fill="#FEFFFF"/>
<path d="M118.737 36.6429V27.79H121.135C123.206 27.79 124.242 28.5345 124.242 30.0221C124.242 31.1219 123.633 31.8241 122.415 32.1273V32.1527C123.032 32.2034 123.529 32.4195 123.906 32.7995C124.282 33.1802 124.47 33.6748 124.47 34.2832C124.47 35.8561 123.345 36.6422 121.096 36.6422L118.737 36.6429ZM120.006 28.8306V31.5696H120.703C121.447 31.5696 121.98 31.4987 122.301 31.3542C122.749 31.1434 122.974 30.7419 122.974 30.149C122.974 29.2699 122.428 28.8306 121.338 28.8306H120.006ZM120.006 32.6095V35.6023H120.956C122.402 35.6023 123.125 35.1253 123.125 34.1694C123.125 33.1295 122.36 32.6102 120.83 32.6102L120.006 32.6095Z" fill="#FEFFFF"/>
<path d="M126.309 36.6429V27.79H131.267V28.9067H127.578V31.4941H130.938V32.6102H127.578V35.5262H131.267V36.6429H126.309Z" fill="#FEFFFF"/>
<path d="M132.649 36.6429V27.79H134.818C135.884 27.79 136.674 27.926 137.19 28.1961C137.9 28.5677 138.256 29.2321 138.256 30.1874C138.256 30.7119 138.084 31.1557 137.742 31.5195C137.399 31.8833 136.961 32.111 136.429 32.2041V32.2295C136.793 32.3648 137.08 32.6603 137.291 33.1171L138.966 36.6429H137.52L136.163 33.5733C135.985 33.1841 135.774 32.931 135.528 32.8125C135.368 32.7449 135.085 32.711 134.679 32.711H133.918V36.6429H132.649ZM133.918 28.9067V31.595H134.995C135.595 31.595 136.065 31.4726 136.404 31.2273C136.741 30.9826 136.911 30.6442 136.911 30.2128C136.911 29.3421 136.318 28.9067 135.135 28.9067H133.918Z" fill="#FEFFFF"/>
<path d="M139.435 36.6429L143.214 27.79H144.545L148.287 36.6429H146.904L146.004 34.4108H141.666L140.767 36.6429H139.435ZM145.598 33.3702L143.835 28.9822L142.073 33.3702H145.598Z" fill="#FEFFFF"/>
<path d="M149.238 36.6429V27.79H150.506V35.5262H154.21V36.6429H149.238Z" fill="#FEFFFF"/>
<path d="M157.76 36.6429L161.54 27.79H162.871L166.612 36.6429H165.23L164.33 34.4108H159.992L159.092 36.6429H157.76ZM163.924 33.3702L162.161 28.9822L160.398 33.3702H163.924Z" fill="#FEFFFF"/>
<path d="M167.5 36.6429V27.79H169.669C170.734 27.79 171.525 27.926 172.041 28.1961C172.751 28.5677 173.106 29.2321 173.106 30.1874C173.106 30.7119 172.935 31.1557 172.593 31.5195C172.25 31.8833 171.813 32.111 171.28 32.2041V32.2295C171.643 32.3648 171.931 32.6603 172.142 33.1171L173.816 36.6429H172.37L171.013 33.5733C170.836 33.1841 170.624 32.931 170.378 32.8125C170.218 32.7449 169.934 32.711 169.529 32.711H168.768V36.6429H167.5ZM168.768 28.9067V31.595H169.846C170.447 31.595 170.916 31.4726 171.254 31.2273C171.593 30.9826 171.761 30.6442 171.761 30.2128C171.761 29.3421 171.169 28.9067 169.985 28.9067H168.768Z" fill="#FEFFFF"/>
<path d="M176.796 36.6429V28.9067H174.044V27.79H180.816V28.9067H178.064V36.6429H176.796Z" fill="#FEFFFF"/>
<path d="M185.965 27.9554L185.788 29.1222C185.162 28.8769 184.609 28.7546 184.126 28.7546C183.095 28.7546 182.579 29.1476 182.579 29.9337C182.579 30.3814 182.909 30.7836 183.568 31.1389C184.71 31.748 185.319 32.0812 185.395 32.1404C186.055 32.6474 186.385 33.3196 186.385 34.1577C186.385 35.0538 186.068 35.73 185.434 36.1868C184.867 36.5922 184.106 36.7953 183.151 36.7953C182.695 36.7953 182.089 36.6729 181.337 36.4282L181.464 35.2491C182.165 35.536 182.778 35.6799 183.302 35.6799C183.734 35.6799 184.114 35.5705 184.444 35.3499C184.841 35.0799 185.04 34.7076 185.04 34.2339C185.04 33.7016 184.71 33.2486 184.051 32.8771C183.442 32.5556 182.833 32.2348 182.224 31.9133C181.564 31.448 181.235 30.8272 181.235 30.0495C181.235 29.2882 181.509 28.6882 182.059 28.2483C182.575 27.8422 183.247 27.6392 184.076 27.6392C184.735 27.6385 185.365 27.7439 185.965 27.9554Z" fill="#FEFFFF"/>
<path d="M190.531 36.6429L194.31 27.79H195.642L199.383 36.6429H198.001L197.1 34.4108H192.763L191.862 36.6429H190.531ZM196.695 33.3702L194.931 28.9822L193.168 33.3702H196.695Z" fill="#FEFFFF"/>
<path d="M200.334 36.6429V27.79H202.067L205.99 34.9177V27.79H207.258V36.6429H205.628L201.601 29.3629V36.6429H200.334Z" fill="#FEFFFF"/>
<path d="M209.11 36.6429V27.79H211.723C213.075 27.79 214.191 28.1753 215.071 28.9445C215.984 29.7475 216.44 30.8128 216.44 32.1397C216.44 33.6026 216.023 34.7186 215.191 35.4884C214.358 36.2576 213.202 36.6422 211.723 36.6422L209.11 36.6429ZM210.378 28.9067V35.5262H211.71C213.967 35.5262 215.095 34.4154 215.095 32.1911C215.095 31.185 214.786 30.3774 214.169 29.7683C213.569 29.1937 212.8 28.9067 211.861 28.9067H210.378Z" fill="#FEFFFF"/>
<path d="M225.431 27.9554L225.254 29.1222C224.628 28.8769 224.075 28.7546 223.592 28.7546C222.561 28.7546 222.046 29.1476 222.046 29.9337C222.046 30.3814 222.376 30.7836 223.035 31.1389C224.176 31.748 224.785 32.0812 224.861 32.1404C225.521 32.6474 225.851 33.3196 225.851 34.1577C225.851 35.0538 225.534 35.73 224.9 36.1868C224.333 36.5922 223.572 36.7953 222.617 36.7953C222.161 36.7953 221.556 36.6729 220.803 36.4282L220.93 35.2491C221.632 35.536 222.245 35.6799 222.769 35.6799C223.2 35.6799 223.581 35.5705 223.91 35.3499C224.308 35.0799 224.506 34.7076 224.506 34.2339C224.506 33.7016 224.176 33.2486 223.517 32.8771C222.908 32.5556 222.299 32.2348 221.69 31.9133C221.03 31.448 220.701 30.8272 220.701 30.0495C220.701 29.2882 220.976 28.6882 221.526 28.2483C222.041 27.8422 222.713 27.6392 223.542 27.6392C224.202 27.6385 224.831 27.7439 225.431 27.9554Z" fill="#FEFFFF"/>
<path d="M226.801 32.2162C226.801 30.8718 227.177 29.7811 227.93 28.9449C228.699 28.0735 229.743 27.6382 231.062 27.6382C232.38 27.6382 233.429 28.0735 234.207 28.9449C234.951 29.7811 235.323 30.8718 235.323 32.2162C235.323 33.5861 234.951 34.6852 234.207 35.5136C233.438 36.3674 232.389 36.7943 231.062 36.7943C229.734 36.7943 228.686 36.368 227.917 35.5136C227.173 34.6852 226.801 33.5861 226.801 32.2162ZM228.146 32.2162C228.146 33.18 228.378 33.9791 228.843 34.6136C229.367 35.3236 230.106 35.6789 231.062 35.6789C232.018 35.6789 232.758 35.3236 233.282 34.6136C233.747 33.9791 233.979 33.1806 233.979 32.2162C233.979 31.2531 233.738 30.4494 233.256 29.8065C232.724 29.105 231.992 28.7542 231.062 28.7542C230.132 28.7542 229.401 29.105 228.869 29.8065C228.387 30.4494 228.146 31.2525 228.146 32.2162Z" fill="#FEFFFF"/>
<path d="M243.022 28.019L242.92 29.249C242.363 28.919 241.754 28.7544 241.094 28.7544C240.079 28.7544 239.259 29.0798 238.633 29.7312C238.008 30.3819 237.696 31.2103 237.696 32.2164C237.696 33.2394 238.016 34.0723 238.659 34.7153C239.301 35.3576 240.092 35.6784 241.031 35.6784C241.834 35.6784 242.477 35.5346 242.959 35.2476L243.034 36.4775C242.527 36.689 241.855 36.7944 241.018 36.7944C239.615 36.7944 238.486 36.376 237.632 35.5391C236.778 34.7023 236.351 33.5817 236.351 32.178C236.351 30.8257 236.79 29.7305 237.669 28.8936C238.549 28.0561 239.669 27.6377 241.03 27.6377C241.783 27.6383 242.446 27.7652 243.022 28.019Z" fill="#FEFFFF"/>
<path d="M244.239 36.6429V27.79H245.507V36.6429H244.239Z" fill="#FEFFFF"/>
<path d="M246.471 36.6429L250.25 27.79H251.582L255.323 36.6429H253.941L253.041 34.4108H248.703L247.803 36.6429H246.471ZM252.634 33.3702L250.872 28.9822L249.109 33.3702H252.634Z" fill="#FEFFFF"/>
<path d="M256.274 36.6429V27.79H257.543V35.5262H261.245V36.6429H256.274Z" fill="#FEFFFF"/>
<path d="M269.718 27.9554L269.54 29.1222C268.915 28.8769 268.361 28.7546 267.879 28.7546C266.847 28.7546 266.331 29.1476 266.331 29.9337C266.331 30.3814 266.661 30.7836 267.321 31.1389C268.462 31.748 269.071 32.0812 269.148 32.1404C269.807 32.6474 270.138 33.3196 270.138 34.1577C270.138 35.0538 269.821 35.73 269.186 36.1868C268.619 36.5922 267.859 36.7953 266.903 36.7953C266.446 36.7953 265.842 36.6729 265.09 36.4282L265.216 35.2491C265.917 35.536 266.531 35.6799 267.055 35.6799C267.486 35.6799 267.866 35.5705 268.196 35.3499C268.593 35.0799 268.792 34.7076 268.792 34.2339C268.792 33.7016 268.462 33.2486 267.803 32.8771C267.194 32.5556 266.586 32.2348 265.977 31.9133C265.317 31.448 264.987 30.8272 264.987 30.0495C264.987 29.2882 265.261 28.6882 265.811 28.2483C266.327 27.8422 266.999 27.6392 267.829 27.6392C268.487 27.6385 269.117 27.7439 269.718 27.9554Z" fill="#FEFFFF"/>
<path d="M277.758 28.019L277.657 29.249C277.099 28.919 276.49 28.7544 275.83 28.7544C274.816 28.7544 273.996 29.0798 273.37 29.7312C272.744 30.3819 272.432 31.2103 272.432 32.2164C272.432 33.2394 272.753 34.0723 273.396 34.7153C274.037 35.3576 274.829 35.6784 275.767 35.6784C276.57 35.6784 277.213 35.5346 277.695 35.2476L277.771 36.4775C277.264 36.689 276.592 36.7944 275.754 36.7944C274.351 36.7944 273.222 36.376 272.368 35.5391C271.514 34.7023 271.087 33.5817 271.087 32.178C271.087 30.8257 271.527 29.7305 272.406 28.8936C273.286 28.0561 274.405 27.6377 275.766 27.6377C276.519 27.6383 277.183 27.7652 277.758 28.019Z" fill="#FEFFFF"/>
<path d="M278.975 36.6429V27.79H280.243V36.6429H278.975Z" fill="#FEFFFF"/>
<path d="M282.248 36.6429V27.79H287.206V28.9067H283.516V31.4941H286.877V32.6102H283.516V35.5262H287.206V36.6429H282.248Z" fill="#FEFFFF"/>
<path d="M288.906 36.6429V27.79H290.638L294.561 34.9177V27.79H295.83V36.6429H294.199L290.173 29.3629V36.6429H288.906Z" fill="#FEFFFF"/>
<path d="M303.971 28.019L303.87 29.249C303.312 28.919 302.703 28.7544 302.044 28.7544C301.028 28.7544 300.209 29.0798 299.583 29.7312C298.957 30.3819 298.645 31.2103 298.645 32.2164C298.645 33.2394 298.966 34.0723 299.609 34.7153C300.251 35.3576 301.042 35.6784 301.981 35.6784C302.784 35.6784 303.426 35.5346 303.908 35.2476L303.984 36.4775C303.477 36.689 302.805 36.7944 301.968 36.7944C300.564 36.7944 299.435 36.376 298.582 35.5391C297.728 34.7023 297.3 33.5817 297.3 32.178C297.3 30.8257 297.74 29.7305 298.619 28.8936C299.499 28.0561 300.618 27.6377 301.98 27.6377C302.733 27.6383 303.397 27.7652 303.971 28.019Z" fill="#FEFFFF"/>
<path d="M305.252 36.6429V27.79H310.211V28.9067H306.52V31.4941H309.881V32.6102H306.52V35.5262H310.211V36.6429H305.252Z" fill="#FEFFFF"/>
<path d="M316.121 27.9554L315.944 29.1222C315.318 28.8769 314.765 28.7546 314.283 28.7546C313.251 28.7546 312.735 29.1476 312.735 29.9337C312.735 30.3814 313.065 30.7836 313.725 31.1389C314.866 31.748 315.475 32.0812 315.552 32.1404C316.211 32.6474 316.541 33.3196 316.541 34.1577C316.541 35.0538 316.224 35.73 315.589 36.1868C315.023 36.5922 314.262 36.7953 313.306 36.7953C312.85 36.7953 312.245 36.6729 311.493 36.4282L311.62 35.2491C312.321 35.536 312.935 35.6799 313.459 35.6799C313.89 35.6799 314.27 35.5705 314.6 35.3499C314.997 35.0799 315.196 34.7076 315.196 34.2339C315.196 33.7016 314.866 33.2486 314.206 32.8771C313.597 32.5556 312.99 32.2348 312.38 31.9133C311.721 31.448 311.391 30.8272 311.391 30.0495C311.391 29.2882 311.665 28.6882 312.215 28.2483C312.731 27.8422 313.403 27.6392 314.232 27.6392C314.892 27.6385 315.521 27.7439 316.121 27.9554Z" fill="#FEFFFF"/>
<path d="M13.5728 43.8654C13.8135 43.0188 15.8348 38.2996 12.8927 33.2341C9.69298 27.7242 7.85526 25.3112 7.16416 21.2681C7.16416 21.2681 3.136 33.3792 13.4641 43.9019C13.4641 43.9019 13.5493 43.9774 13.5728 43.8654Z" fill="#FEFFFF"/>
<path d="M12.3383 52.0334C10.2377 38.8218 1.96338 39.4595 1.96338 39.4595C3.76531 50.2009 11.1435 52.0464 12.2218 52.1427C12.3064 52.1694 12.3448 52.1407 12.3383 52.0334Z" fill="#FEFFFF"/>
<path d="M18.6898 31.9859C18.6898 33.1637 17.7371 34.1164 16.5612 34.1164C15.3847 34.1164 14.4326 33.1631 14.4326 31.9859C14.4326 30.8113 15.3847 29.8579 16.5612 29.8579C17.7371 29.8586 18.6898 30.8119 18.6898 31.9859Z" fill="#FEFFFF"/>
<path d="M20.3288 24.9579C21.3326 24.9579 22.1463 24.1441 22.1463 23.1403C22.1463 22.1365 21.3326 21.3228 20.3288 21.3228C19.325 21.3228 18.5112 22.1365 18.5112 23.1403C18.5112 24.1441 19.325 24.9579 20.3288 24.9579Z" fill="#FEFFFF"/>
<path d="M30.5596 13.8521C31.563 13.8521 32.3765 13.0386 32.3765 12.0352C32.3765 11.0317 31.563 10.2183 30.5596 10.2183C29.5561 10.2183 28.7427 11.0317 28.7427 12.0352C28.7427 13.0386 29.5561 13.8521 30.5596 13.8521Z" fill="#FEFFFF"/>
<path d="M65.5063 7.60681C66.192 7.60681 66.7479 7.05091 66.7479 6.36517C66.7479 5.67943 66.192 5.12354 65.5063 5.12354C64.8206 5.12354 64.2646 5.67943 64.2646 6.36517C64.2646 7.05091 64.8206 7.60681 65.5063 7.60681Z" fill="#FEFFFF"/>
<path d="M15.4711 55.6132C16.7553 55.6132 17.7963 54.5722 17.7963 53.288C17.7963 52.0039 16.7553 50.9629 15.4711 50.9629C14.187 50.9629 13.146 52.0039 13.146 53.288C13.146 54.5722 14.187 55.6132 15.4711 55.6132Z" fill="#FEFFFF"/>
<path d="M19.6242 17.7667C19.9723 17.3938 20.7369 16.9174 20.9387 16.7554C22.5493 15.4773 24.3011 14.5122 25.5864 12.8548C26.8039 11.2878 27.739 9.37846 28.1659 7.43792C28.41 6.32578 28.438 5.11473 28.438 3.97656C28.438 3.97656 25.9339 5.76483 23.9113 7.49713C21.7111 9.52358 20.1539 13.1535 19.5038 17.6684C19.5038 17.6684 19.4446 17.8805 19.6242 17.7667Z" fill="#FEFFFF"/>
<path d="M23.4087 58.9828C23.3169 58.9275 23.2213 58.878 23.1887 58.8553C22.823 58.5878 22.4658 58.3099 22.1332 58.0015C21.1961 57.1321 20.2779 56.003 19.7352 54.8427C19.5478 54.4418 19.4189 54.0195 19.3324 53.5868C18.9758 51.8382 19.1307 50.2054 20.0163 48.6365C20.386 47.9812 20.8623 47.24 21.4031 46.7142C22.6597 45.4868 24.0803 44.0767 24.3725 41.2472C24.3757 41.214 24.3796 41.1802 24.3822 41.147C24.3822 41.147 28.5522 45.33 24.9588 51.9254C23.6853 54.7692 22.6857 56.4572 23.5174 58.8976C23.5981 59.0134 23.4881 59.0192 23.4087 58.9828Z" fill="#FEFFFF"/>
<path d="M16.9781 49.9787C17.0887 49.4001 17.2781 48.8392 17.5013 48.2971C18.046 46.9761 18.8223 45.7982 19.708 44.6828C20.5943 43.5687 21.5015 42.4358 21.9967 41.0822C22.7932 38.9067 22.5505 36.4124 22.0396 34.1959C21.8021 33.1671 21.4806 32.1344 21.0258 31.1745C20.9802 31.0854 20.9359 31.1218 20.9268 31.1823C20.8904 31.4107 20.7726 31.7237 20.7362 31.8448C20.6457 32.1493 20.5325 32.448 20.4023 32.7389C19.9449 33.7554 19.2987 34.673 18.629 35.5593C18.0076 36.3851 17.4453 37.138 17.0529 38.1044C16.6651 39.0558 16.4022 40.0527 16.1718 41.0549C15.6759 43.2089 15.797 45.4019 16.2069 47.5592C16.3293 48.1962 16.464 48.8359 16.6494 49.4574C16.6989 49.6246 16.7718 49.8199 16.8414 49.9852C16.8818 50.1153 16.9638 50.0632 16.9781 49.9787Z" fill="#FEFFFF"/>
<path d="M18.431 28.2341C22.1996 29.8337 26.2394 28.7912 28.098 26.7569C30.4745 23.8019 32.2778 22.2166 32.2673 22.188C29.0852 22.2335 26.5108 23.2904 24.0601 25.2719C21.4069 27.6732 19.2601 28.1547 18.4551 28.1248C18.2937 28.1014 18.325 28.2068 18.431 28.2341Z" fill="#FEFFFF"/>
<path d="M13.5577 29.4738C13.604 29.2545 13.6866 29.0261 13.725 28.9044C14.2827 27.1149 15.5725 25.7541 16.2538 24.0355C16.982 22.201 17.1785 20.0451 17.0276 18.0694C16.8733 16.0683 16.0781 14.269 15.4514 12.4066C15.1671 11.5599 15.0564 10.7127 15.0564 9.81201C15.0564 9.81201 7.71074 16.2746 13.3567 29.4608C13.4393 29.6743 13.535 29.5942 13.5577 29.4738Z" fill="#FEFFFF"/>
<path d="M22.9741 20.763C22.9741 20.763 27.7129 12.3279 42.0242 14.1286C42.1186 14.6967 36.5273 19.2461 33.5892 19.7198C30.6504 20.1936 25.9116 19.8148 22.9741 20.763Z" fill="#FEFFFF"/>
<path d="M33.7485 9.87973C33.7485 9.87973 35.4789 4.33728 42.9222 2.8438C47.5002 2.21908 49.4597 2.21778 51.0807 1.50065C50.8744 1.44403 50.1416 5.12013 41.7183 7.10297C38.2895 8.08691 34.9368 9.44568 33.7485 9.87973Z" fill="#FEFFFF"/>
<path d="M39.6802 10.1543C39.6802 10.1543 43.3738 15.1664 50.0935 14.4161C54.3878 14.0491 54.328 13.0215 57.4581 13.1497C57.3722 13.2668 55.0366 10.9417 49.0927 11.3621C46.1975 11.4044 43.1877 11.3627 39.6802 10.1543Z" fill="#FEFFFF"/>
<path d="M46.4702 10.2589C46.4702 10.2589 48.7329 5.48305 56.8862 4.88175C57.9651 4.85507 58.7323 4.98717 59.6837 5.32817C60.5193 5.62686 61.3952 5.99974 62.2802 5.84096C61.9848 6.10517 59.1885 8.01252 55.461 8.56436C51.7322 9.1162 51.1342 8.06068 46.4702 10.2589Z" fill="#FEFFFF"/>
<path d="M20.2866 59.7751C17.1538 59.2818 15.335 58.1781 13.7745 56.8467C6.28692 49.7808 0.140563 51.7754 0 51.6784C4.4967 53.3775 4.31514 55.5498 7.53116 58.4482C9.22311 60.4974 15.5595 63.1063 20.2866 59.7751Z" fill="#FEFFFF"/>
<path d="M78.484 10.3509C76.1498 10.114 75.3168 11.2158 71.7175 12.0019C62.7169 13.5513 57.8896 9.93184 57.8896 9.93184C61.7818 10.3451 64.3848 8.95636 67.5488 8.79628C73.3047 8.5991 77.6914 9.96047 78.4944 10.2976C78.4944 10.2976 78.5719 10.3496 78.484 10.3509Z" fill="#FEFFFF"/>
<path d="M22.3779 59.6616C22.3779 59.6616 22.6669 63.1757 26.2597 62.9928C27.9757 62.97 29.4711 61.651 30.2052 61.897C30.1284 61.8729 28.4781 60.4965 26.548 60.5551C25.1352 60.6384 23.9872 61.0087 22.3779 59.6616Z" fill="#FEFFFF"/>
</svg>
